<svg xmlns="http://www.w3.org/2000/svg" xmlns:xlink="http://www.w3.org/1999/xlink" width="50" zoomAndPan="magnify" viewBox="0 0 37.5 37.499999" height="50" preserveAspectRatio="xMidYMid meet" version="1.0"><defs><clipPath id="27a4db3193"><path d="M 29 14 L 37.007812 14 L 37.007812 30.703125 L 29 30.703125 Z M 29 14 " clip-rule="nonzero"/></clipPath><clipPath id="97824e8cac"><path d="M 0 14 L 9 14 L 9 30.703125 L 0 30.703125 Z M 0 14 " clip-rule="nonzero"/></clipPath><clipPath id="4a7f485be9"><path d="M 6 29 L 31 29 L 31 30.703125 L 6 30.703125 Z M 6 29 " clip-rule="nonzero"/></clipPath><clipPath id="dab62d07d0"><path d="M 4 6.703125 L 33 6.703125 L 33 21 L 4 21 Z M 4 6.703125 " clip-rule="nonzero"/></clipPath></defs><path fill="#000000" d="M 18.75 21.703125 C 19.117188 21.703125 19.417969 22.003906 19.417969 22.371094 C 19.417969 22.554688 19.566406 22.703125 19.75 22.703125 L 29.128906 22.703125 C 29.308594 22.703125 29.457031 22.554688 29.457031 22.371094 L 29.457031 19.703125 C 29.457031 19.519531 29.308594 19.371094 29.128906 19.371094 L 19.75 19.371094 C 19.566406 19.371094 19.417969 19.519531 19.417969 19.703125 C 19.417969 20.070312 19.117188 20.371094 18.75 20.371094 C 18.382812 20.371094 18.082031 20.070312 18.082031 19.703125 C 18.082031 19.519531 17.933594 19.371094 17.75 19.371094 L 8.371094 19.371094 C 8.1875 19.371094 8.042969 19.519531 8.042969 19.703125 L 8.042969 22.371094 C 8.042969 22.554688 8.1875 22.703125 8.371094 22.703125 L 17.75 22.703125 C 17.933594 22.703125 18.082031 22.554688 18.082031 22.371094 C 18.082031 22.003906 18.382812 21.703125 18.75 21.703125 Z M 29.128906 24.035156 L 19.75 24.035156 C 19.375 24.035156 19.027344 23.914062 18.75 23.703125 C 18.46875 23.914062 18.125 24.035156 17.75 24.035156 L 8.371094 24.035156 C 7.449219 24.035156 6.703125 23.289062 6.703125 22.371094 L 6.703125 19.703125 C 6.703125 18.785156 7.449219 18.035156 8.371094 18.035156 L 17.75 18.035156 C 18.125 18.035156 18.46875 18.160156 18.75 18.371094 C 19.027344 18.160156 19.375 18.035156 19.75 18.035156 L 29.128906 18.035156 C 30.050781 18.035156 30.796875 18.785156 30.796875 19.703125 L 30.796875 22.371094 C 30.796875 23.289062 30.050781 24.035156 29.128906 24.035156 " fill-opacity="1" fill-rule="nonzero"/><g clip-path="url(#27a4db3193)"><path fill="#000000" d="M 30.796875 29.371094 L 33.472656 29.371094 L 33.472656 20.113281 C 33.472656 19.746094 33.773438 19.445312 34.144531 19.445312 C 35.304688 19.445312 36.152344 18.613281 36.152344 17.460938 L 36.152344 17.355469 C 36.152344 16.261719 35.171875 15.371094 33.960938 15.371094 C 32.214844 15.371094 30.796875 16.667969 30.796875 18.261719 Z M 34.144531 30.703125 L 30.128906 30.703125 C 29.757812 30.703125 29.457031 30.402344 29.457031 30.035156 L 29.457031 18.261719 C 29.457031 15.933594 31.480469 14.035156 33.960938 14.035156 C 35.90625 14.035156 37.488281 15.527344 37.488281 17.355469 L 37.488281 17.460938 C 37.488281 19.125 36.378906 20.429688 34.8125 20.71875 L 34.8125 30.035156 C 34.8125 30.402344 34.511719 30.703125 34.144531 30.703125 " fill-opacity="1" fill-rule="nonzero"/></g><g clip-path="url(#97824e8cac)"><path fill="#000000" d="M 4.027344 29.371094 L 6.703125 29.371094 L 6.703125 18.261719 C 6.703125 16.667969 5.285156 15.371094 3.539062 15.371094 C 2.328125 15.371094 1.347656 16.261719 1.347656 17.355469 L 1.347656 17.460938 C 1.347656 18.578125 2.429688 19.445312 3.355469 19.445312 C 3.726562 19.445312 4.027344 19.746094 4.027344 20.113281 Z M 7.371094 30.703125 L 3.355469 30.703125 C 2.988281 30.703125 2.6875 30.402344 2.6875 30.035156 L 2.6875 20.707031 C 1.199219 20.378906 0.0117188 19.003906 0.0117188 17.460938 L 0.0117188 17.355469 C 0.0117188 15.527344 1.59375 14.035156 3.539062 14.035156 C 6.019531 14.035156 8.042969 15.933594 8.042969 18.261719 L 8.042969 30.035156 C 8.042969 30.402344 7.742188 30.703125 7.371094 30.703125 " fill-opacity="1" fill-rule="nonzero"/></g><g clip-path="url(#4a7f485be9)"><path fill="#000000" d="M 30.128906 30.703125 L 7.371094 30.703125 C 7.003906 30.703125 6.703125 30.402344 6.703125 30.035156 C 6.703125 29.667969 7.003906 29.371094 7.371094 29.371094 L 30.128906 29.371094 C 30.496094 29.371094 30.796875 29.667969 30.796875 30.035156 C 30.796875 30.402344 30.496094 30.703125 30.128906 30.703125 " fill-opacity="1" fill-rule="nonzero"/></g><g clip-path="url(#dab62d07d0)"><path fill="#000000" d="M 30.128906 20.035156 C 29.757812 20.035156 29.457031 19.738281 29.457031 19.371094 L 29.457031 16.207031 C 29.457031 13.894531 30.175781 13.09375 30.753906 12.449219 C 31.175781 11.976562 31.453125 11.667969 31.453125 10.703125 C 31.453125 9.183594 30.328125 8.035156 28.832031 8.035156 L 8.667969 8.035156 C 7.171875 8.035156 6.046875 9.183594 6.046875 10.703125 C 6.046875 11.667969 6.324219 11.976562 6.746094 12.449219 C 7.324219 13.09375 8.042969 13.894531 8.042969 16.207031 L 8.042969 19.371094 C 8.042969 19.738281 7.742188 20.035156 7.371094 20.035156 C 7.003906 20.035156 6.703125 19.738281 6.703125 19.371094 L 6.703125 16.207031 C 6.703125 14.402344 6.238281 13.886719 5.746094 13.332031 C 5.261719 12.792969 4.707031 12.175781 4.707031 10.703125 C 4.707031 8.421875 6.410156 6.703125 8.667969 6.703125 L 28.832031 6.703125 C 31.089844 6.703125 32.792969 8.421875 32.792969 10.703125 C 32.792969 12.175781 32.238281 12.792969 31.753906 13.332031 C 31.261719 13.886719 30.796875 14.402344 30.796875 16.207031 L 30.796875 19.371094 C 30.796875 19.738281 30.496094 20.035156 30.128906 20.035156 " fill-opacity="1" fill-rule="nonzero"/></g><path fill="#000000" d="M 18.75 23.371094 C 18.382812 23.371094 18.082031 23.070312 18.082031 22.703125 L 18.082031 20.035156 C 18.082031 19.667969 18.382812 19.371094 18.75 19.371094 C 19.117188 19.371094 19.417969 19.667969 19.417969 20.035156 L 19.417969 22.703125 C 19.417969 23.070312 19.117188 23.371094 18.75 23.371094 " fill-opacity="1" fill-rule="nonzero"/></svg>