<svg xmlns="http://www.w3.org/2000/svg" xmlns:xlink="http://www.w3.org/1999/xlink" width="30" zoomAndPan="magnify" viewBox="0 0 45 30.000001" height="30" preserveAspectRatio="xMidYMid meet" version="1.0"><defs><clipPath id="8e9fba2583"><path d="M 0.726562 0.0195312 L 44.273438 0.0195312 L 44.273438 29.03125 L 0.726562 29.03125 Z M 0.726562 0.0195312 " clip-rule="nonzero"/></clipPath></defs><g clip-path="url(#8e9fba2583)"><path fill="#c83974" d="M 41.539062 0.0195312 L 3.460938 0.0195312 C 3.101562 0.0195312 2.753906 0.0859375 2.421875 0.226562 C 2.089844 0.363281 1.796875 0.5625 1.539062 0.816406 C 1.285156 1.070312 1.089844 1.367188 0.949219 1.699219 C 0.8125 2.03125 0.742188 2.378906 0.742188 2.738281 L 0.742188 26.328125 C 0.742188 26.6875 0.8125 27.035156 0.949219 27.371094 C 1.089844 27.703125 1.285156 27.996094 1.539062 28.253906 C 1.796875 28.507812 2.089844 28.703125 2.421875 28.84375 C 2.753906 28.980469 3.101562 29.050781 3.460938 29.050781 L 41.539062 29.050781 C 41.898438 29.050781 42.246094 28.980469 42.578125 28.84375 C 42.910156 28.703125 43.203125 28.507812 43.460938 28.253906 C 43.714844 27.996094 43.910156 27.703125 44.050781 27.371094 C 44.1875 27.035156 44.257812 26.6875 44.257812 26.328125 L 44.257812 2.738281 C 44.257812 2.378906 44.1875 2.03125 44.050781 1.699219 C 43.910156 1.367188 43.714844 1.070312 43.460938 0.816406 C 43.203125 0.5625 42.910156 0.363281 42.578125 0.226562 C 42.246094 0.0859375 41.898438 0.0195312 41.539062 0.0195312 Z M 40.734375 1.832031 L 23.0625 15.765625 C 22.898438 15.894531 22.710938 15.960938 22.5 15.960938 C 22.292969 15.960938 22.105469 15.894531 21.941406 15.765625 L 4.265625 1.832031 Z M 41.539062 27.234375 L 3.460938 27.234375 C 3.210938 27.234375 3 27.148438 2.820312 26.96875 C 2.644531 26.792969 2.554688 26.578125 2.554688 26.328125 L 2.554688 2.792969 L 20.816406 17.191406 C 21.058594 17.378906 21.320312 17.527344 21.609375 17.625 C 21.898438 17.726562 22.195312 17.777344 22.5 17.777344 C 22.804688 17.777344 23.101562 17.726562 23.390625 17.625 C 23.679688 17.523438 23.945312 17.378906 24.183594 17.191406 L 42.445312 2.792969 L 42.445312 26.328125 C 42.445312 26.578125 42.355469 26.792969 42.179688 26.96875 C 42 27.148438 41.789062 27.234375 41.539062 27.234375 Z M 41.539062 27.234375 " fill-opacity="1" fill-rule="nonzero"/></g></svg>