<svg xmlns="http://www.w3.org/2000/svg" xmlns:xlink="http://www.w3.org/1999/xlink" width="50" zoomAndPan="magnify" viewBox="0 0 37.5 37.499999" height="50" preserveAspectRatio="xMidYMid meet" version="1.0"><defs><clipPath id="42937b269f"><path d="M 4 3 L 36 3 L 36 33 L 4 33 Z M 4 3 " clip-rule="nonzero"/></clipPath><clipPath id="e3c424d17c"><path d="M 17.246094 -0.898438 L 35.808594 17.664062 L 17.246094 36.226562 L -1.316406 17.664062 Z M 17.246094 -0.898438 " clip-rule="nonzero"/></clipPath><clipPath id="bf60e14f46"><path d="M 17.246094 -0.898438 L 35.808594 17.664062 L 17.246094 36.226562 L -1.316406 17.664062 Z M 17.246094 -0.898438 " clip-rule="nonzero"/></clipPath><clipPath id="586a50366e"><path d="M 17.246094 -0.898438 L 35.808594 17.664062 L 17.246094 36.226562 L -1.316406 17.664062 Z M 17.246094 -0.898438 " clip-rule="nonzero"/></clipPath><clipPath id="e6298af612"><path d="M 17.246094 -0.898438 L 35.808594 17.664062 L 16.824219 36.648438 L -1.738281 18.085938 Z M 17.246094 -0.898438 " clip-rule="nonzero"/></clipPath><clipPath id="df368b8590"><path d="M 17.246094 -0.898438 L 35.808594 17.664062 L 17.238281 36.234375 L -1.324219 17.671875 Z M 17.246094 -0.898438 " clip-rule="nonzero"/></clipPath></defs><g clip-path="url(#42937b269f)"><g clip-path="url(#e3c424d17c)"><g clip-path="url(#bf60e14f46)"><g clip-path="url(#586a50366e)"><g clip-path="url(#e6298af612)"><g clip-path="url(#df368b8590)"><path fill="#040606" d="M 32.96875 18.609375 C 32.070312 19.234375 31.03125 19.566406 29.957031 19.546875 L 24.445312 19.546875 C 24.25 19.546875 24.054688 19.664062 23.957031 19.84375 L 17.894531 31.101562 L 16.253906 31.101562 L 17.835938 25.023438 C 18.265625 23.378906 18.460938 21.699219 18.460938 20.015625 C 18.460938 19.703125 18.226562 19.472656 17.933594 19.453125 L 10.230469 18.945312 C 10.035156 18.941406 9.839844 19.019531 9.722656 19.175781 L 7.003906 23.300781 L 6.300781 23.300781 L 7.023438 18.671875 C 7.042969 18.492188 6.984375 18.316406 6.867188 18.199219 C 6.808594 18.140625 6.75 18.121094 6.671875 18.082031 L 5.636719 17.671875 L 6.671875 17.261719 C 6.925781 17.164062 7.0625 16.910156 7.003906 16.65625 L 6.320312 12.019531 L 7.023438 12.019531 L 9.742188 16.148438 C 9.859375 16.304688 10.035156 16.402344 10.25 16.382812 L 17.953125 15.871094 C 18.246094 15.851562 18.480469 15.617188 18.480469 15.304688 C 18.480469 13.625 18.265625 11.925781 17.855469 10.300781 L 16.253906 4.238281 L 17.894531 4.238281 L 23.957031 15.5 C 24.054688 15.675781 24.25 15.792969 24.445312 15.792969 L 29.957031 15.792969 C 31.035156 15.816406 32.089844 16.128906 32.96875 16.730469 L 34.023438 17.476562 C 34.125 17.535156 34.125 17.613281 34.121094 17.652344 C 34.121094 17.691406 34.101562 17.789062 34.023438 17.828125 Z M 35.273438 17.671875 C 35.277344 17.242188 35.0625 16.832031 34.691406 16.574219 L 33.632812 15.832031 C 32.539062 15.089844 31.289062 14.699219 29.976562 14.679688 L 24.777344 14.679688 L 18.714844 3.417969 C 18.617188 3.242188 18.421875 3.125 18.226562 3.125 L 15.527344 3.125 C 15.375 3.125 15.175781 3.203125 15.082031 3.339844 C 14.980469 3.476562 14.921875 3.652344 14.980469 3.828125 L 16.742188 10.59375 C 17.09375 11.964844 17.308594 13.390625 17.347656 14.796875 L 10.484375 15.246094 L 7.785156 11.140625 C 7.667969 10.984375 7.492188 10.886719 7.320312 10.90625 L 5.675781 10.90625 C 5.519531 10.90625 5.363281 10.984375 5.246094 11.101562 C 5.128906 11.21875 5.089844 11.375 5.109375 11.554688 L 5.832031 16.382812 L 4.972656 16.730469 C 4.582031 16.890625 4.328125 17.261719 4.34375 17.671875 C 4.367188 18.082031 4.582031 18.453125 4.972656 18.609375 L 5.832031 18.960938 L 5.109375 23.792969 C 5.089844 23.964844 5.128906 24.121094 5.246094 24.238281 L 5.285156 24.28125 C 5.382812 24.378906 5.519531 24.4375 5.675781 24.4375 L 7.316406 24.4375 C 7.511719 24.4375 7.691406 24.339844 7.785156 24.203125 L 10.484375 20.097656 L 17.328125 20.527344 C 17.289062 21.933594 17.074219 23.359375 16.722656 24.730469 L 14.960938 31.496094 C 14.921875 31.652344 14.960938 31.84375 15.0625 31.984375 C 15.15625 32.121094 15.3125 32.199219 15.507812 32.199219 L 18.207031 32.199219 C 18.402344 32.199219 18.597656 32.082031 18.695312 31.902344 L 24.777344 20.664062 L 29.9375 20.664062 C 31.25 20.683594 32.519531 20.273438 33.59375 19.511719 L 34.652344 18.765625 C 35.039062 18.53125 35.257812 18.121094 35.277344 17.671875 L 35.273438 17.671875 " fill-opacity="1" fill-rule="nonzero"/></g></g></g></g></g></g></svg>