<svg xmlns="http://www.w3.org/2000/svg" xmlns:xlink="http://www.w3.org/1999/xlink" width="35" zoomAndPan="magnify" viewBox="0 0 37.5 30.000001" height="35" preserveAspectRatio="xMidYMid meet" version="1.0"><defs><clipPath id="f4e7bc1928"><path d="M 0.363281 0 L 36.652344 0 L 36.652344 28.683594 L 0.363281 28.683594 Z M 0.363281 0 " clip-rule="nonzero"/></clipPath></defs><path fill="#1f275e" d="M 10.578125 8.054688 C 10.578125 8.464844 10.5 8.859375 10.34375 9.234375 C 10.1875 9.613281 9.964844 9.945312 9.675781 10.234375 C 9.382812 10.523438 9.050781 10.746094 8.671875 10.902344 C 8.296875 11.058594 7.902344 11.136719 7.492188 11.136719 C 7.082031 11.136719 6.691406 11.058594 6.3125 10.902344 C 5.933594 10.746094 5.601562 10.523438 5.3125 10.234375 C 5.023438 9.945312 4.800781 9.613281 4.644531 9.234375 C 4.484375 8.859375 4.40625 8.464844 4.40625 8.054688 C 4.40625 7.648438 4.484375 7.253906 4.644531 6.878906 C 4.800781 6.5 5.023438 6.167969 5.3125 5.878906 C 5.601562 5.589844 5.933594 5.367188 6.3125 5.210938 C 6.691406 5.054688 7.082031 4.976562 7.492188 4.976562 C 7.902344 4.976562 8.296875 5.054688 8.671875 5.210938 C 9.050781 5.367188 9.382812 5.589844 9.675781 5.878906 C 9.964844 6.167969 10.1875 6.5 10.34375 6.878906 C 10.5 7.253906 10.578125 7.648438 10.578125 8.054688 Z M 10.578125 8.054688 " fill-opacity="1" fill-rule="nonzero"/><path fill="#1f275e" d="M 34.019531 17.042969 L 28.683594 12.914062 C 28.476562 12.75 28.242188 12.625 27.992188 12.539062 C 27.738281 12.453125 27.480469 12.410156 27.214844 12.410156 C 26.949219 12.410156 26.6875 12.453125 26.4375 12.539062 C 26.183594 12.625 25.953125 12.75 25.742188 12.914062 L 18.371094 18.628906 C 18.160156 18.789062 17.929688 18.914062 17.679688 19 C 17.425781 19.085938 17.167969 19.128906 16.902344 19.128906 C 16.636719 19.128906 16.375 19.085938 16.125 19 C 15.871094 18.914062 15.640625 18.789062 15.429688 18.628906 L 13.238281 16.914062 C 13.027344 16.75 12.796875 16.625 12.546875 16.539062 C 12.292969 16.453125 12.035156 16.410156 11.769531 16.410156 C 11.5 16.410156 11.242188 16.453125 10.992188 16.539062 C 10.738281 16.625 10.507812 16.75 10.296875 16.914062 L 3.480469 22.199219 C 3.074219 22.511719 2.800781 22.914062 2.652344 23.40625 C 2.507812 23.894531 2.515625 24.382812 2.683594 24.867188 C 2.847656 25.351562 3.140625 25.742188 3.558594 26.039062 C 3.972656 26.335938 4.4375 26.484375 4.953125 26.484375 L 32.546875 26.484375 C 32.867188 26.484375 33.171875 26.421875 33.464844 26.300781 C 33.761719 26.179688 34.019531 26.007812 34.242188 25.78125 C 34.46875 25.558594 34.640625 25.300781 34.765625 25.007812 C 34.886719 24.710938 34.945312 24.40625 34.945312 24.089844 L 34.945312 18.914062 C 34.9375 18.140625 34.628906 17.519531 34.019531 17.042969 Z M 34.019531 17.042969 " fill-opacity="1" fill-rule="nonzero"/><g clip-path="url(#f4e7bc1928)"><path fill="#1f275e" d="M 33.53125 -0.00390625 L 3.96875 -0.00390625 C 3.5 -0.00390625 3.046875 0.0820312 2.617188 0.261719 C 2.183594 0.441406 1.800781 0.695312 1.46875 1.027344 C 1.140625 1.359375 0.882812 1.738281 0.703125 2.171875 C 0.527344 2.601562 0.4375 3.050781 0.4375 3.519531 L 0.4375 25.164062 C 0.4375 25.632812 0.527344 26.082031 0.703125 26.511719 C 0.882812 26.945312 1.140625 27.328125 1.46875 27.65625 C 1.800781 27.988281 2.183594 28.242188 2.617188 28.421875 C 3.046875 28.601562 3.5 28.691406 3.96875 28.691406 L 33.53125 28.691406 C 34 28.691406 34.453125 28.601562 34.882812 28.421875 C 35.316406 28.242188 35.699219 27.988281 36.03125 27.65625 C 36.359375 27.328125 36.617188 26.945312 36.796875 26.511719 C 36.972656 26.082031 37.0625 25.632812 37.0625 25.164062 L 37.0625 3.519531 C 37.0625 3.050781 36.972656 2.601562 36.796875 2.171875 C 36.617188 1.738281 36.359375 1.359375 36.03125 1.027344 C 35.699219 0.695312 35.316406 0.441406 34.882812 0.261719 C 34.453125 0.0820312 34 -0.00390625 33.53125 -0.00390625 Z M 35.917969 25.164062 C 35.917969 25.480469 35.859375 25.785156 35.738281 26.074219 C 35.617188 26.367188 35.445312 26.625 35.21875 26.847656 C 34.996094 27.074219 34.738281 27.246094 34.445312 27.367188 C 34.152344 27.488281 33.847656 27.546875 33.53125 27.546875 L 3.96875 27.546875 C 3.652344 27.546875 3.347656 27.488281 3.054688 27.367188 C 2.761719 27.246094 2.503906 27.074219 2.28125 26.847656 C 2.054688 26.625 1.882812 26.367188 1.761719 26.074219 C 1.640625 25.785156 1.582031 25.480469 1.582031 25.164062 L 1.582031 3.519531 C 1.582031 3.203125 1.640625 2.898438 1.761719 2.609375 C 1.882812 2.316406 2.054688 2.058594 2.28125 1.835938 C 2.503906 1.613281 2.761719 1.4375 3.054688 1.320312 C 3.347656 1.199219 3.652344 1.136719 3.96875 1.136719 L 33.53125 1.136719 C 33.847656 1.136719 34.152344 1.199219 34.445312 1.320312 C 34.738281 1.4375 34.996094 1.613281 35.21875 1.835938 C 35.445312 2.058594 35.617188 2.316406 35.738281 2.609375 C 35.859375 2.898438 35.917969 3.203125 35.917969 3.519531 Z M 35.917969 25.164062 " fill-opacity="1" fill-rule="nonzero"/></g></svg>