<svg xmlns="http://www.w3.org/2000/svg" xmlns:xlink="http://www.w3.org/1999/xlink" width="40" zoomAndPan="magnify" viewBox="0 0 30 30.000001" height="40" preserveAspectRatio="xMidYMid meet" version="1.0"><defs><clipPath id="53d94cc950"><path d="M 4.546875 0 L 27.773438 0 L 27.773438 29.03125 L 4.546875 29.03125 Z M 4.546875 0 " clip-rule="nonzero"/></clipPath></defs><g clip-path="url(#53d94cc950)"><path fill="#ffffff" d="M 20.609375 0.0273438 L 8.441406 0.0273438 C 6.292969 0.0273438 4.542969 1.777344 4.542969 3.925781 L 4.542969 25.105469 C 4.542969 27.257812 6.292969 29.007812 8.441406 29.007812 L 23.878906 29.007812 C 26.03125 29.007812 27.78125 27.257812 27.78125 25.105469 L 27.78125 8.039062 Z M 21.179688 3.746094 L 24.453125 7.40625 L 21.179688 7.40625 Z M 23.878906 26.949219 L 8.441406 26.949219 C 7.425781 26.949219 6.597656 26.125 6.597656 25.105469 L 6.597656 3.925781 C 6.597656 2.910156 7.425781 2.082031 8.441406 2.082031 L 19.121094 2.082031 L 19.121094 9.460938 L 25.722656 9.460938 L 25.722656 25.105469 C 25.722656 26.125 24.894531 26.949219 23.878906 26.949219 Z M 23.878906 26.949219 " fill-opacity="1" fill-rule="nonzero"/></g><path fill="#ffffff" d="M 8.804688 20.800781 L 23.515625 20.800781 L 23.515625 22.859375 L 8.804688 22.859375 Z M 8.804688 20.800781 " fill-opacity="1" fill-rule="nonzero"/><path fill="#ffffff" d="M 8.804688 16.335938 L 23.515625 16.335938 L 23.515625 18.390625 L 8.804688 18.390625 Z M 8.804688 16.335938 " fill-opacity="1" fill-rule="nonzero"/><path fill="#ffffff" d="M 8.804688 11.871094 L 23.515625 11.871094 L 23.515625 13.925781 L 8.804688 13.925781 Z M 8.804688 11.871094 " fill-opacity="1" fill-rule="nonzero"/></svg>