<svg xmlns="http://www.w3.org/2000/svg" xmlns:xlink="http://www.w3.org/1999/xlink" width="40" zoomAndPan="magnify" viewBox="0 0 30 30.000001" height="40" preserveAspectRatio="xMidYMid meet" version="1.0"><defs><clipPath id="51e052ca5c"><path d="M 0.484375 0 L 29.515625 0 L 29.515625 29.03125 L 0.484375 29.03125 Z M 0.484375 0 " clip-rule="nonzero"/></clipPath></defs><g clip-path="url(#51e052ca5c)"><path fill="#18a8a8" d="M 29.15625 1.765625 C 28.933594 1.65625 28.667969 1.683594 28.472656 1.835938 C 25.640625 4.050781 21.480469 4.726562 17.875 3.554688 C 16.933594 3.25 16 2.816406 15.097656 2.394531 C 13.890625 1.832031 12.644531 1.25 11.308594 0.933594 C 7.714844 0.0664062 4.402344 1.328125 1.773438 2.75 L 1.773438 0.644531 C 1.773438 0.289062 1.484375 0 1.128906 0 C 0.773438 0 0.484375 0.289062 0.484375 0.644531 L 0.484375 28.386719 C 0.484375 28.742188 0.773438 29.03125 1.128906 29.03125 C 1.484375 29.03125 1.773438 28.742188 1.773438 28.386719 L 1.773438 20.75 C 4.417969 19.238281 7.558594 17.878906 11.007812 18.710938 C 12.214844 19 13.351562 19.527344 14.550781 20.085938 C 15.492188 20.523438 16.460938 20.976562 17.472656 21.304688 C 18.773438 21.730469 20.140625 21.933594 21.503906 21.933594 C 24.332031 21.933594 27.136719 21.046875 29.269531 19.378906 C 29.425781 19.25 29.515625 19.066406 29.515625 18.867188 L 29.515625 2.34375 C 29.515625 2.101562 29.375 1.875 29.15625 1.765625 Z M 28.226562 18.546875 C 25.402344 20.613281 21.378906 21.214844 17.875 20.078125 C 16.933594 19.773438 16 19.339844 15.097656 18.917969 C 13.890625 18.355469 12.644531 17.773438 11.308594 17.453125 C 10.492188 17.257812 9.6875 17.171875 8.902344 17.171875 C 6.238281 17.171875 3.804688 18.175781 1.773438 19.269531 L 1.773438 4.226562 C 4.417969 2.714844 7.5625 1.359375 11.007812 2.1875 C 12.21875 2.476562 13.351562 3.007812 14.550781 3.566406 C 15.492188 4 16.460938 4.453125 17.472656 4.785156 C 21.058594 5.949219 25.140625 5.464844 28.226562 3.578125 Z M 28.226562 18.546875 " fill-opacity="1" fill-rule="nonzero"/></g></svg>