<svg xmlns="http://www.w3.org/2000/svg" xmlns:xlink="http://www.w3.org/1999/xlink" width="40" zoomAndPan="magnify" viewBox="0 0 30 30.000001" height="40" preserveAspectRatio="xMidYMid meet" version="1.0"><defs><clipPath id="53e575384a"><path d="M 0.484375 2.902344 L 29.515625 2.902344 L 29.515625 26.128906 L 0.484375 26.128906 Z M 0.484375 2.902344 " clip-rule="nonzero"/></clipPath></defs><g clip-path="url(#53e575384a)"><path fill="#ffffff" d="M 27.222656 2.910156 L 2.777344 2.910156 C 2.472656 2.910156 2.179688 2.96875 1.898438 3.085938 C 1.617188 3.207031 1.371094 3.371094 1.15625 3.589844 C 0.941406 3.808594 0.773438 4.058594 0.660156 4.34375 C 0.542969 4.628906 0.484375 4.925781 0.484375 5.230469 L 0.484375 24.574219 C 0.484375 24.78125 0.523438 24.976562 0.601562 25.167969 C 0.675781 25.355469 0.789062 25.523438 0.929688 25.667969 C 1.074219 25.8125 1.238281 25.925781 1.425781 26.003906 C 1.613281 26.082031 1.808594 26.121094 2.011719 26.121094 L 27.988281 26.121094 C 28.191406 26.121094 28.386719 26.082031 28.574219 26.003906 C 28.761719 25.925781 28.925781 25.8125 29.070312 25.667969 C 29.210938 25.523438 29.324219 25.355469 29.398438 25.167969 C 29.476562 24.976562 29.515625 24.78125 29.515625 24.574219 L 29.515625 5.230469 C 29.515625 4.925781 29.457031 4.628906 29.339844 4.34375 C 29.226562 4.058594 29.058594 3.808594 28.84375 3.589844 C 28.628906 3.371094 28.382812 3.207031 28.101562 3.085938 C 27.820312 2.96875 27.527344 2.910156 27.222656 2.910156 Z M 2.777344 4.457031 L 27.222656 4.457031 C 27.433594 4.457031 27.613281 4.535156 27.765625 4.683594 C 27.914062 4.835938 27.988281 5.019531 27.988281 5.230469 L 27.988281 20.121094 L 21.476562 13.527344 C 21.332031 13.378906 21.167969 13.269531 20.980469 13.191406 C 20.792969 13.109375 20.597656 13.070312 20.394531 13.070312 C 20.191406 13.070312 19.996094 13.109375 19.808594 13.191406 C 19.621094 13.269531 19.457031 13.378906 19.3125 13.527344 L 16.476562 16.394531 L 10.777344 10.625 C 10.636719 10.480469 10.46875 10.367188 10.28125 10.289062 C 10.09375 10.210938 9.902344 10.171875 9.699219 10.171875 C 9.496094 10.171875 9.300781 10.210938 9.113281 10.289062 C 8.925781 10.367188 8.761719 10.480469 8.617188 10.625 L 2.011719 17.316406 L 2.011719 5.230469 C 2.011719 5.019531 2.085938 4.835938 2.234375 4.683594 C 2.386719 4.535156 2.566406 4.457031 2.777344 4.457031 Z M 2.777344 24.574219 C 2.566406 24.574219 2.386719 24.5 2.234375 24.347656 C 2.085938 24.195312 2.011719 24.015625 2.011719 23.800781 L 2.011719 19.507812 L 9.699219 11.71875 L 15.382812 17.492188 C 15.523438 17.636719 15.691406 17.75 15.878906 17.828125 C 16.066406 17.90625 16.261719 17.945312 16.464844 17.945312 C 16.664062 17.945312 16.859375 17.90625 17.046875 17.828125 C 17.234375 17.75 17.402344 17.636719 17.542969 17.492188 L 20.378906 14.621094 L 27.988281 22.3125 L 27.988281 23.800781 C 27.988281 24.015625 27.914062 24.195312 27.765625 24.347656 C 27.613281 24.5 27.433594 24.574219 27.222656 24.574219 Z M 2.777344 24.574219 " fill-opacity="1" fill-rule="nonzero"/></g><path fill="#ffffff" d="M 23.945312 10.96875 C 24.285156 10.96875 24.609375 10.902344 24.921875 10.773438 C 25.234375 10.640625 25.507812 10.453125 25.75 10.214844 C 25.988281 9.972656 26.171875 9.691406 26.300781 9.375 C 26.429688 9.058594 26.496094 8.730469 26.496094 8.386719 C 26.496094 8.046875 26.429688 7.71875 26.300781 7.402344 C 26.171875 7.085938 25.988281 6.804688 25.75 6.5625 C 25.507812 6.320312 25.234375 6.136719 24.921875 6.003906 C 24.609375 5.875 24.285156 5.808594 23.945312 5.808594 C 23.609375 5.808594 23.285156 5.875 22.972656 6.003906 C 22.660156 6.136719 22.382812 6.320312 22.144531 6.5625 C 21.90625 6.804688 21.722656 7.085938 21.59375 7.402344 C 21.464844 7.71875 21.398438 8.046875 21.398438 8.386719 C 21.398438 8.730469 21.464844 9.058594 21.59375 9.375 C 21.722656 9.691406 21.90625 9.972656 22.144531 10.214844 C 22.382812 10.453125 22.660156 10.640625 22.972656 10.773438 C 23.285156 10.902344 23.609375 10.96875 23.945312 10.96875 Z M 23.945312 7.359375 C 24.082031 7.359375 24.210938 7.386719 24.335938 7.4375 C 24.460938 7.492188 24.570312 7.566406 24.667969 7.660156 C 24.761719 7.757812 24.835938 7.871094 24.890625 7.996094 C 24.941406 8.125 24.964844 8.253906 24.964844 8.390625 C 24.964844 8.53125 24.941406 8.660156 24.890625 8.789062 C 24.835938 8.914062 24.761719 9.027344 24.667969 9.121094 C 24.570312 9.21875 24.460938 9.292969 24.335938 9.347656 C 24.210938 9.398438 24.082031 9.425781 23.945312 9.425781 C 23.8125 9.425781 23.679688 9.398438 23.554688 9.347656 C 23.429688 9.292969 23.320312 9.21875 23.226562 9.121094 C 23.128906 9.027344 23.054688 8.914062 23.003906 8.789062 C 22.953125 8.660156 22.925781 8.53125 22.925781 8.390625 C 22.925781 8.253906 22.953125 8.125 23.003906 7.996094 C 23.054688 7.871094 23.128906 7.757812 23.226562 7.660156 C 23.320312 7.566406 23.429688 7.492188 23.554688 7.4375 C 23.679688 7.386719 23.8125 7.359375 23.945312 7.359375 Z M 23.945312 7.359375 " fill-opacity="1" fill-rule="nonzero"/></svg>