<svg xmlns="http://www.w3.org/2000/svg" xmlns:xlink="http://www.w3.org/1999/xlink" width="40" zoomAndPan="magnify" viewBox="0 0 30 30.000001" height="40" preserveAspectRatio="xMidYMid meet" version="1.0"><defs><clipPath id="d337602ee4"><path d="M 1.070312 0.570312 L 3 0.570312 L 3 28.148438 L 1.070312 28.148438 Z M 1.070312 0.570312 " clip-rule="nonzero"/></clipPath><clipPath id="09f071e6f0"><path d="M 27 0.570312 L 28.640625 0.570312 L 28.640625 28.148438 L 27 28.148438 Z M 27 0.570312 " clip-rule="nonzero"/></clipPath><clipPath id="3ab92a264f"><path d="M 4 0.570312 L 26 0.570312 L 26 6 L 4 6 Z M 4 0.570312 " clip-rule="nonzero"/></clipPath><clipPath id="e19e4491c7"><path d="M 4 23 L 26 23 L 26 28.148438 L 4 28.148438 Z M 4 23 " clip-rule="nonzero"/></clipPath></defs><g clip-path="url(#d337602ee4)"><path fill="#ffffff" d="M 1.886719 0.597656 C 1.441406 0.597656 1.082031 0.957031 1.082031 1.402344 L 1.082031 27.316406 C 1.082031 27.761719 1.441406 28.121094 1.886719 28.121094 C 2.335938 28.121094 2.695312 27.761719 2.695312 27.316406 L 2.695312 1.402344 C 2.695312 0.957031 2.335938 0.597656 1.886719 0.597656 " fill-opacity="1" fill-rule="nonzero"/></g><g clip-path="url(#09f071e6f0)"><path fill="#ffffff" d="M 27.832031 0.597656 C 27.386719 0.597656 27.027344 0.957031 27.027344 1.402344 L 27.027344 27.316406 C 27.027344 27.761719 27.386719 28.121094 27.832031 28.121094 C 28.28125 28.121094 28.640625 27.761719 28.640625 27.316406 L 28.640625 1.402344 C 28.640625 0.957031 28.28125 0.597656 27.832031 0.597656 " fill-opacity="1" fill-rule="nonzero"/></g><g clip-path="url(#3ab92a264f)"><path fill="#ffffff" d="M 24.605469 0.570312 C 24.15625 0.570312 23.796875 0.929688 23.796875 1.375 L 23.796875 2.960938 C 23.796875 3.40625 23.433594 3.769531 22.988281 3.769531 L 6.734375 3.769531 C 6.289062 3.769531 5.925781 3.40625 5.925781 2.960938 L 5.925781 1.375 C 5.925781 0.929688 5.5625 0.570312 5.117188 0.570312 C 4.671875 0.570312 4.308594 0.929688 4.308594 1.375 L 4.308594 2.960938 C 4.308594 4.296875 5.398438 5.382812 6.734375 5.382812 L 22.988281 5.382812 C 24.324219 5.382812 25.410156 4.296875 25.410156 2.960938 L 25.410156 1.375 C 25.410156 0.929688 25.050781 0.570312 24.605469 0.570312 " fill-opacity="1" fill-rule="nonzero"/></g><g clip-path="url(#e19e4491c7)"><path fill="#ffffff" d="M 22.988281 23.335938 L 6.734375 23.335938 C 5.398438 23.335938 4.308594 24.421875 4.308594 25.753906 L 4.308594 27.34375 C 4.308594 27.789062 4.671875 28.148438 5.117188 28.148438 C 5.5625 28.148438 5.925781 27.789062 5.925781 27.34375 L 5.925781 25.753906 C 5.925781 25.3125 6.289062 24.949219 6.734375 24.949219 L 22.988281 24.949219 C 23.433594 24.949219 23.796875 25.3125 23.796875 25.753906 L 23.796875 27.34375 C 23.796875 27.789062 24.15625 28.148438 24.605469 28.148438 C 25.050781 28.148438 25.410156 27.789062 25.410156 27.34375 L 25.410156 25.753906 C 25.410156 24.421875 24.324219 23.335938 22.988281 23.335938 " fill-opacity="1" fill-rule="nonzero"/></g><path fill="#ffffff" d="M 22.988281 6.992188 L 6.734375 6.992188 C 5.398438 6.992188 4.308594 8.078125 4.308594 9.414062 L 4.308594 19.304688 C 4.308594 20.640625 5.398438 21.722656 6.734375 21.722656 L 22.988281 21.722656 C 24.324219 21.722656 25.410156 20.640625 25.410156 19.304688 L 25.410156 9.414062 C 25.410156 8.078125 24.324219 6.992188 22.988281 6.992188 Z M 23.796875 19.304688 C 23.796875 19.75 23.433594 20.113281 22.988281 20.113281 L 6.734375 20.113281 C 6.289062 20.113281 5.925781 19.75 5.925781 19.304688 L 5.925781 9.414062 C 5.925781 8.96875 6.289062 8.605469 6.734375 8.605469 L 22.988281 8.605469 C 23.433594 8.605469 23.796875 8.96875 23.796875 9.414062 L 23.796875 19.304688 " fill-opacity="1" fill-rule="nonzero"/><path fill="#ffffff" d="M 17.621094 13.683594 L 12.980469 10.679688 C 12.730469 10.519531 12.414062 10.507812 12.152344 10.648438 C 11.894531 10.789062 11.730469 11.058594 11.730469 11.355469 L 11.730469 17.363281 C 11.730469 17.65625 11.894531 17.929688 12.152344 18.070312 C 12.273438 18.136719 12.40625 18.167969 12.539062 18.167969 C 12.691406 18.167969 12.84375 18.125 12.980469 18.039062 L 17.621094 15.035156 C 17.851562 14.886719 17.988281 14.632812 17.988281 14.359375 C 17.988281 14.085938 17.851562 13.832031 17.621094 13.683594 Z M 13.347656 15.878906 L 13.347656 12.839844 L 15.695312 14.359375 Z M 13.347656 15.878906 " fill-opacity="1" fill-rule="nonzero"/></svg>