<svg xmlns="http://www.w3.org/2000/svg" xmlns:xlink="http://www.w3.org/1999/xlink" width="40" zoomAndPan="magnify" viewBox="0 0 30 30.000001" height="40" preserveAspectRatio="xMidYMid meet" version="1.0"><defs><clipPath id="218efb29e2"><path d="M 4 0 L 26.355469 0 L 26.355469 28.304688 L 4 28.304688 Z M 4 0 " clip-rule="nonzero"/></clipPath></defs><g clip-path="url(#218efb29e2)"><path fill="#2fb1b3" d="M 13.800781 0.980469 L 4.578125 10.050781 C 4.402344 10.222656 4.269531 10.421875 4.175781 10.644531 C 4.082031 10.867188 4.035156 11.097656 4.035156 11.339844 C 4.035156 11.582031 4.082031 11.816406 4.175781 12.039062 C 4.269531 12.261719 4.402344 12.457031 4.578125 12.628906 C 4.75 12.800781 4.953125 12.929688 5.179688 13.023438 C 5.40625 13.117188 5.640625 13.164062 5.886719 13.164062 C 6.132812 13.164062 6.367188 13.117188 6.597656 13.023438 C 6.824219 12.929688 7.023438 12.800781 7.195312 12.628906 L 13.261719 6.660156 L 13.261719 42.1875 C 13.261719 42.429688 13.308594 42.660156 13.402344 42.882812 C 13.496094 43.105469 13.628906 43.300781 13.800781 43.46875 C 13.976562 43.640625 14.175781 43.773438 14.402344 43.863281 C 14.625 43.957031 14.863281 44.003906 15.105469 44.003906 C 15.351562 44.003906 15.585938 43.957031 15.8125 43.863281 C 16.039062 43.773438 16.238281 43.640625 16.410156 43.46875 C 16.582031 43.300781 16.71875 43.105469 16.8125 42.882812 C 16.902344 42.660156 16.949219 42.429688 16.949219 42.1875 L 16.949219 6.660156 L 23.019531 12.628906 C 23.191406 12.800781 23.394531 12.929688 23.621094 13.023438 C 23.847656 13.113281 24.082031 13.160156 24.328125 13.160156 C 24.574219 13.160156 24.808594 13.113281 25.035156 13.023438 C 25.261719 12.929688 25.464844 12.800781 25.636719 12.628906 C 25.808594 12.457031 25.941406 12.257812 26.035156 12.035156 C 26.125 11.8125 26.171875 11.582031 26.171875 11.339844 C 26.171875 11.101562 26.125 10.867188 26.035156 10.644531 C 25.941406 10.421875 25.808594 10.222656 25.636719 10.050781 L 16.417969 0.980469 C 16.242188 0.8125 16.039062 0.679688 15.8125 0.589844 C 15.585938 0.5 15.351562 0.453125 15.105469 0.453125 C 14.863281 0.453125 14.625 0.5 14.398438 0.589844 C 14.171875 0.679688 13.972656 0.8125 13.796875 0.980469 Z M 13.800781 0.980469 " fill-opacity="1" fill-rule="nonzero"/></g></svg>