<svg xmlns="http://www.w3.org/2000/svg" xmlns:xlink="http://www.w3.org/1999/xlink" width="50" zoomAndPan="magnify" viewBox="0 0 37.5 37.499999" height="50" preserveAspectRatio="xMidYMid meet" version="1.0"><defs><clipPath id="81e5b858b6"><path d="M 0.902344 25 L 37.007812 25 L 37.007812 34 L 0.902344 34 Z M 0.902344 25 " clip-rule="nonzero"/></clipPath><clipPath id="0b59ad5774"><path d="M 18 1.640625 L 20 1.640625 L 20 25 L 18 25 Z M 18 1.640625 " clip-rule="nonzero"/></clipPath><clipPath id="875f48fb89"><path d="M 0.902344 34 L 37.007812 34 L 37.007812 36.140625 L 0.902344 36.140625 Z M 0.902344 34 " clip-rule="nonzero"/></clipPath></defs><g clip-path="url(#81e5b858b6)"><path fill="#000000" d="M 7.089844 33.203125 L 31.460938 33.203125 C 33.972656 33.203125 35.472656 31.65625 36.289062 30.359375 C 37.226562 28.867188 37.648438 27.089844 37.648438 25.988281 C 37.648438 25.769531 37.46875 25.589844 37.25 25.589844 L 1.296875 25.589844 C 1.078125 25.589844 0.902344 25.769531 0.902344 25.988281 C 0.902344 27.089844 1.320312 28.867188 2.257812 30.359375 C 3.074219 31.65625 4.574219 33.203125 7.089844 33.203125 Z M 36.835938 26.386719 C 36.746094 27.359375 36.359375 28.757812 35.617188 29.933594 C 34.910156 31.0625 33.613281 32.40625 31.460938 32.40625 L 7.089844 32.40625 C 4.9375 32.40625 3.640625 31.058594 2.929688 29.933594 C 2.1875 28.757812 1.800781 27.359375 1.714844 26.386719 Z M 36.835938 26.386719 " fill-opacity="1" fill-rule="nonzero"/></g><g clip-path="url(#0b59ad5774)"><path fill="#000000" d="M 19.273438 24.871094 C 19.492188 24.871094 19.671875 24.691406 19.671875 24.472656 L 19.671875 2.054688 C 19.671875 1.832031 19.492188 1.65625 19.273438 1.65625 C 19.054688 1.65625 18.878906 1.832031 18.878906 2.054688 L 18.878906 24.472656 C 18.878906 24.691406 19.054688 24.871094 19.273438 24.871094 Z M 19.273438 24.871094 " fill-opacity="1" fill-rule="nonzero"/></g><path fill="#000000" d="M 5.363281 22.667969 C 5.429688 22.707031 5.503906 22.730469 5.578125 22.730469 C 5.636719 22.730469 5.691406 22.71875 5.742188 22.695312 C 6.140625 22.515625 7.117188 22.300781 9.511719 22.300781 C 12.863281 22.300781 17.011719 22.722656 17.050781 22.726562 C 17.164062 22.738281 17.273438 22.703125 17.359375 22.628906 C 17.441406 22.550781 17.488281 22.445312 17.488281 22.332031 L 17.488281 3.386719 C 17.488281 3.28125 17.445312 3.175781 17.367188 3.101562 C 17.289062 3.023438 17.183594 2.984375 17.074219 2.992188 C 15.855469 3.046875 14.5 3.8125 13.035156 5.269531 C 11.757812 6.539062 10.445312 8.304688 9.234375 10.371094 C 6.773438 14.582031 5.183594 19.277344 5.183594 22.332031 C 5.183594 22.46875 5.25 22.59375 5.363281 22.667969 Z M 9.917969 10.773438 C 12.21875 6.84375 14.765625 4.25 16.695312 3.839844 L 16.695312 21.894531 C 15.53125 21.785156 12.261719 21.503906 9.511719 21.503906 C 7.917969 21.503906 6.757812 21.59375 5.992188 21.78125 C 6.167969 18.855469 7.671875 14.621094 9.917969 10.773438 Z M 9.917969 10.773438 " fill-opacity="1" fill-rule="nonzero"/><path fill="#000000" d="M 21.496094 22.726562 C 21.539062 22.722656 25.683594 22.300781 29.035156 22.300781 C 31.433594 22.300781 32.410156 22.515625 32.804688 22.695312 C 32.859375 22.71875 32.914062 22.730469 32.96875 22.730469 C 33.101562 22.730469 33.226562 22.664062 33.300781 22.546875 C 33.410156 22.382812 33.378906 22.160156 33.230469 22.03125 C 28.128906 17.558594 24.722656 11.945312 21.832031 3.261719 C 21.769531 3.078125 21.585938 2.964844 21.390625 2.996094 C 21.199219 3.027344 21.058594 3.191406 21.058594 3.386719 L 21.058594 22.332031 C 21.058594 22.445312 21.105469 22.550781 21.191406 22.628906 C 21.273438 22.703125 21.382812 22.738281 21.496094 22.726562 Z M 21.851562 5.730469 C 24.410156 12.71875 27.421875 17.625 31.601562 21.621094 C 30.921875 21.542969 30.070312 21.503906 29.035156 21.503906 C 26.289062 21.503906 23.015625 21.785156 21.851562 21.894531 Z M 21.851562 5.730469 " fill-opacity="1" fill-rule="nonzero"/><g clip-path="url(#875f48fb89)"><path fill="#000000" d="M 37.25 35.328125 C 36.320312 35.328125 35.867188 35.167969 35.386719 34.996094 C 34.863281 34.808594 34.324219 34.617188 33.257812 34.617188 C 32.1875 34.617188 31.648438 34.808594 31.125 34.996094 C 30.644531 35.167969 30.191406 35.328125 29.261719 35.328125 C 28.332031 35.328125 27.878906 35.167969 27.398438 34.996094 C 26.875 34.808594 26.335938 34.617188 25.269531 34.617188 C 24.199219 34.617188 23.660156 34.808594 23.136719 34.996094 C 22.65625 35.167969 22.203125 35.328125 21.273438 35.328125 C 20.34375 35.328125 19.890625 35.167969 19.410156 34.996094 C 18.886719 34.808594 18.34375 34.617188 17.277344 34.617188 C 16.210938 34.617188 15.671875 34.808594 15.148438 34.996094 C 14.667969 35.167969 14.214844 35.328125 13.28125 35.328125 C 12.351562 35.328125 11.898438 35.167969 11.417969 34.996094 C 10.894531 34.808594 10.355469 34.617188 9.289062 34.617188 C 8.21875 34.617188 7.679688 34.808594 7.15625 34.996094 C 6.675781 35.167969 6.222656 35.328125 5.292969 35.328125 C 4.363281 35.328125 3.910156 35.167969 3.429688 34.996094 C 2.90625 34.808594 2.363281 34.617188 1.296875 34.617188 C 1.078125 34.617188 0.898438 34.792969 0.898438 35.015625 C 0.898438 35.234375 1.078125 35.414062 1.296875 35.414062 C 2.226562 35.414062 2.679688 35.574219 3.160156 35.746094 C 3.683594 35.933594 4.226562 36.125 5.292969 36.125 C 6.359375 36.125 6.902344 35.933594 7.421875 35.746094 C 7.902344 35.574219 8.359375 35.414062 9.289062 35.414062 C 10.21875 35.414062 10.671875 35.574219 11.152344 35.746094 C 11.675781 35.933594 12.214844 36.125 13.28125 36.125 C 14.351562 36.125 14.890625 35.933594 15.414062 35.746094 C 15.894531 35.574219 16.347656 35.414062 17.277344 35.414062 C 18.207031 35.414062 18.664062 35.574219 19.144531 35.746094 C 19.664062 35.933594 20.207031 36.125 21.273438 36.125 C 22.339844 36.125 22.878906 35.933594 23.402344 35.746094 C 23.882812 35.574219 24.335938 35.414062 25.269531 35.414062 C 26.199219 35.414062 26.652344 35.574219 27.132812 35.746094 C 27.65625 35.933594 28.195312 36.125 29.261719 36.125 C 30.328125 36.125 30.871094 35.933594 31.390625 35.746094 C 31.871094 35.574219 32.328125 35.414062 33.257812 35.414062 C 34.1875 35.414062 34.640625 35.574219 35.121094 35.746094 C 35.644531 35.933594 36.183594 36.125 37.25 36.125 C 37.46875 36.125 37.648438 35.949219 37.648438 35.726562 C 37.648438 35.507812 37.46875 35.328125 37.25 35.328125 Z M 37.25 35.328125 " fill-opacity="1" fill-rule="nonzero"/></g></svg>