<svg xmlns="http://www.w3.org/2000/svg" xmlns:xlink="http://www.w3.org/1999/xlink" width="50" zoomAndPan="magnify" viewBox="0 0 37.5 37.499999" height="50" preserveAspectRatio="xMidYMid meet" version="1.0"><defs><clipPath id="64456838f6"><path d="M 0 3.75 L 37.007812 3.75 L 37.007812 33 L 0 33 Z M 0 3.75 " clip-rule="nonzero"/></clipPath></defs><g clip-path="url(#64456838f6)"><path fill="#000000" d="M 35.621094 8.691406 L 27.761719 8.691406 L 27.496094 6.832031 L 27.292969 5.578125 C 27.210938 5.074219 26.941406 4.65625 26.515625 4.304688 C 26.082031 3.949219 25.621094 3.757812 25.109375 3.757812 L 12.332031 3.757812 C 11.820312 3.757812 11.351562 3.941406 10.921875 4.304688 C 10.492188 4.667969 10.265625 5.097656 10.1875 5.578125 L 9.980469 6.832031 L 9.695312 8.691406 L 1.878906 8.691406 C 0.835938 8.691406 0 9.523438 0 10.511719 L 0 31.136719 C 0 32.167969 0.835938 32.996094 1.878906 32.996094 L 35.621094 32.996094 C 36.664062 32.996094 37.5 32.167969 37.5 31.136719 L 37.5 10.511719 C 37.5 9.523438 36.664062 8.691406 35.621094 8.691406 Z M 35.234375 30.753906 L 2.246094 30.753906 L 2.246094 10.917969 L 9.695312 10.917969 C 10.820312 10.917969 11.789062 10.089844 11.941406 9.015625 L 12.207031 7.15625 L 12.410156 6.003906 L 25.066406 6.003906 L 25.25 7.15625 L 25.539062 9.015625 C 25.703125 10.089844 26.679688 10.917969 27.761719 10.917969 L 35.234375 10.917969 Z M 35.234375 30.753906 " fill-opacity="1" fill-rule="nonzero"/></g><path fill="#000000" d="M 31.601562 16.195312 C 32.582031 16.195312 33.398438 15.367188 33.398438 14.394531 C 33.398438 13.40625 32.601562 12.574219 31.601562 12.574219 C 30.601562 12.574219 29.804688 13.40625 29.804688 14.394531 C 29.804688 15.367188 30.621094 16.195312 31.601562 16.195312 Z M 31.601562 16.195312 " fill-opacity="1" fill-rule="nonzero"/><path fill="#000000" d="M 18.71875 11.503906 C 16.414062 11.503906 14.414062 12.332031 12.757812 13.96875 C 11.105469 15.609375 10.269531 17.589844 10.269531 19.875 C 10.269531 22.160156 11.105469 24.140625 12.757812 25.777344 C 14.414062 27.414062 16.414062 28.191406 18.71875 28.226562 C 23.292969 28.292969 27.222656 24.363281 27.171875 19.875 C 27.144531 17.570312 26.332031 15.609375 24.679688 13.96875 C 23.027344 12.332031 21.046875 11.503906 18.71875 11.503906 Z M 23.085938 24.222656 C 21.882812 25.414062 20.433594 26 18.71875 26 C 17.023438 26 15.574219 25.414062 14.371094 24.222656 C 13.167969 23.027344 12.574219 21.574219 12.574219 19.875 C 12.574219 18.195312 13.167969 16.738281 14.371094 15.546875 C 15.574219 14.355469 17.023438 13.746094 18.71875 13.746094 C 20.433594 13.746094 21.882812 14.355469 23.085938 15.546875 C 24.292969 16.738281 24.90625 18.195312 24.90625 19.875 C 24.90625 21.574219 24.292969 23.027344 23.085938 24.222656 Z M 23.085938 24.222656 " fill-opacity="1" fill-rule="nonzero"/></svg>