<svg xmlns="http://www.w3.org/2000/svg" xmlns:xlink="http://www.w3.org/1999/xlink" width="50" zoomAndPan="magnify" viewBox="0 0 37.5 37.499999" height="50" preserveAspectRatio="xMidYMid meet" version="1.0"><defs><clipPath id="4cec15f8f9"><path d="M 0 2.0625 L 37.007812 2.0625 L 37.007812 35.8125 L 0 35.8125 Z M 0 2.0625 " clip-rule="nonzero"/></clipPath></defs><g clip-path="url(#4cec15f8f9)"><path fill="#100f0d" d="M 2.984375 14.644531 L 10.050781 9.707031 L 17.117188 14.644531 L 17.117188 20.214844 L 16.457031 19.757812 C 16.269531 19.625 16.023438 19.625 15.839844 19.757812 L 9.378906 24.234375 C 9.230469 24.339844 9.140625 24.507812 9.140625 24.691406 L 9.140625 34.683594 L 2.984375 34.683594 Z M 22.0625 24.984375 L 22.0625 34.683594 L 10.234375 34.683594 L 10.234375 24.984375 L 16.148438 20.882812 Z M 16.695312 3.183594 L 26.808594 3.183594 L 26.808594 19.839844 C 26.808594 20.144531 27.054688 20.394531 27.355469 20.394531 L 34.515625 20.394531 L 34.515625 34.683594 L 23.15625 34.683594 L 23.15625 24.691406 C 23.15625 24.507812 23.066406 24.339844 22.917969 24.234375 L 18.214844 20.972656 L 18.214844 14.355469 C 18.214844 14.171875 18.125 14.003906 17.976562 13.898438 L 16.695312 13.003906 Z M 36.953125 34.683594 L 35.609375 34.683594 L 35.609375 19.839844 C 35.609375 19.535156 35.363281 19.285156 35.0625 19.285156 L 27.902344 19.285156 L 27.902344 2.628906 C 27.902344 2.324219 27.65625 2.078125 27.355469 2.078125 L 16.148438 2.078125 C 15.847656 2.078125 15.601562 2.324219 15.601562 2.628906 L 15.601562 12.238281 L 10.363281 8.578125 C 10.175781 8.449219 9.929688 8.449219 9.742188 8.578125 L 2.128906 13.898438 C 1.980469 14.003906 1.890625 14.171875 1.890625 14.355469 L 1.890625 34.683594 L 0.546875 34.683594 C 0.246094 34.683594 0 34.929688 0 35.238281 C 0 35.542969 0.246094 35.792969 0.546875 35.792969 L 36.953125 35.792969 C 37.253906 35.792969 37.5 35.542969 37.5 35.238281 C 37.5 34.929688 37.253906 34.683594 36.953125 34.683594 " fill-opacity="1" fill-rule="nonzero"/></g></svg>