<svg xmlns="http://www.w3.org/2000/svg" xmlns:xlink="http://www.w3.org/1999/xlink" width="50" zoomAndPan="magnify" viewBox="0 0 37.5 37.499999" height="50" preserveAspectRatio="xMidYMid meet" version="1.0"><defs><clipPath id="8248f7776d"><path d="M 0 1.78125 L 37.007812 1.78125 L 37.007812 35.53125 L 0 35.53125 Z M 0 1.78125 " clip-rule="nonzero"/></clipPath></defs><g clip-path="url(#8248f7776d)"><path fill="#000000" d="M 31.867188 33.835938 C 28.128906 33.527344 23.363281 32.402344 20.339844 30.527344 C 20.691406 30.328125 21.175781 30.046875 21.75 29.667969 C 22.886719 28.925781 24.515625 27.730469 25.835938 26.261719 C 26.410156 25.625 26.875 24.90625 27.21875 24.121094 C 27.558594 23.339844 27.777344 22.511719 27.859375 21.664062 C 27.882812 21.390625 27.898438 21.144531 27.90625 20.9375 C 27.925781 20.1875 27.792969 19.449219 27.507812 18.75 C 27.230469 18.078125 26.832031 17.472656 26.320312 16.949219 C 25.808594 16.425781 25.210938 16.011719 24.546875 15.722656 C 23.847656 15.417969 23.113281 15.261719 22.355469 15.261719 L 22.339844 15.261719 C 21.023438 15.265625 19.761719 15.730469 18.765625 16.570312 C 17.769531 15.726562 16.496094 15.261719 15.175781 15.261719 C 14.609375 15.261719 14.039062 15.347656 13.476562 15.515625 C 12.628906 15.769531 11.847656 16.238281 11.21875 16.863281 C 10.59375 17.492188 10.125 18.269531 9.871094 19.113281 C 9.777344 19.429688 9.710938 19.796875 9.671875 20.199219 C 9.445312 22.492188 10.25 24.789062 11.878906 26.5 C 13.214844 27.902344 14.8125 29.035156 15.917969 29.738281 C 16.441406 30.074219 16.886719 30.332031 17.21875 30.515625 C 14.199219 32.394531 9.421875 33.527344 5.675781 33.835938 L 5.675781 15.003906 L 7.097656 13.796875 L 9.074219 12.121094 L 18.855469 3.820312 L 27.441406 11.796875 L 27.789062 12.121094 L 29.589844 13.796875 L 29.65625 13.855469 L 31.867188 15.910156 Z M 18.914062 29.292969 C 18.882812 29.296875 18.847656 29.300781 18.816406 29.304688 C 18.804688 29.304688 18.789062 29.308594 18.769531 29.308594 C 18.753906 29.308594 18.738281 29.304688 18.726562 29.304688 C 18.714844 29.304688 18.703125 29.300781 18.695312 29.300781 C 18.347656 29.136719 17.640625 28.757812 16.765625 28.195312 C 15.773438 27.554688 14.34375 26.535156 13.164062 25.296875 C 11.882812 23.953125 11.25 22.15625 11.425781 20.367188 C 11.457031 20.078125 11.5 19.824219 11.5625 19.617188 C 11.914062 18.453125 12.820312 17.546875 13.988281 17.195312 C 14.382812 17.078125 14.78125 17.015625 15.175781 17.015625 C 16.460938 17.015625 17.652344 17.660156 18.355469 18.738281 C 18.445312 18.878906 18.597656 18.960938 18.765625 18.960938 C 18.933594 18.960938 19.085938 18.878906 19.179688 18.738281 C 19.878906 17.664062 21.0625 17.019531 22.34375 17.015625 L 22.355469 17.015625 C 23.355469 17.015625 24.339844 17.4375 25.054688 18.171875 C 25.773438 18.90625 26.167969 19.898438 26.140625 20.890625 C 26.136719 21.054688 26.125 21.257812 26.101562 21.496094 C 25.972656 22.824219 25.414062 24.097656 24.523438 25.089844 C 23.351562 26.390625 21.902344 27.460938 20.886719 28.132812 C 19.996094 28.71875 19.273438 29.117188 18.914062 29.292969 Z M 18.796875 29.347656 C 18.785156 29.34375 18.769531 29.335938 18.753906 29.328125 C 18.757812 29.328125 18.765625 29.328125 18.769531 29.324219 C 18.789062 29.328125 18.808594 29.332031 18.828125 29.335938 C 18.816406 29.339844 18.808594 29.34375 18.796875 29.347656 Z M 37.140625 18.519531 L 33.550781 15.183594 L 30.804688 12.632812 C 30.808594 12.609375 30.808594 12.582031 30.808594 12.558594 L 30.808594 7.957031 C 30.808594 7.53125 30.460938 7.1875 30.035156 7.1875 L 28.214844 7.1875 C 27.785156 7.1875 27.441406 7.53125 27.441406 7.957031 L 27.441406 9.503906 L 19.457031 2.085938 C 19.144531 1.792969 18.660156 1.785156 18.335938 2.058594 L 6.476562 12.121094 L 3.992188 14.230469 L 0.394531 17.28125 C 0.0429688 17.582031 0 18.109375 0.300781 18.460938 C 0.605469 18.8125 1.136719 18.855469 1.488281 18.554688 L 3.992188 16.433594 L 3.992188 34.691406 C 3.992188 35.15625 4.367188 35.53125 4.832031 35.53125 L 5.421875 35.53125 C 5.421875 35.53125 5.621094 35.523438 5.675781 35.515625 C 8.015625 35.335938 10.636719 34.847656 12.914062 34.167969 C 14.292969 33.753906 15.550781 33.277344 16.644531 32.742188 C 17.4375 32.355469 18.152344 31.9375 18.769531 31.496094 C 19.082031 31.714844 19.414062 31.933594 19.769531 32.140625 C 20.125 32.347656 20.5 32.550781 20.898438 32.742188 C 21.992188 33.277344 23.246094 33.753906 24.628906 34.167969 C 26.902344 34.847656 29.527344 35.335938 31.867188 35.515625 C 31.917969 35.523438 32.121094 35.53125 32.121094 35.53125 L 32.707031 35.53125 C 33.175781 35.53125 33.550781 35.15625 33.550781 34.691406 L 33.550781 17.476562 L 35.992188 19.746094 C 36.152344 19.894531 36.359375 19.972656 36.566406 19.972656 C 36.792969 19.972656 37.015625 19.882812 37.183594 19.707031 C 37.5 19.367188 37.480469 18.835938 37.140625 18.519531 " fill-opacity="1" fill-rule="nonzero"/></g></svg>