<svg xmlns="http://www.w3.org/2000/svg" xmlns:xlink="http://www.w3.org/1999/xlink" width="30" zoomAndPan="magnify" viewBox="0 0 56.25 61.499996" height="30" preserveAspectRatio="xMidYMid meet" version="1.0"><defs><clipPath id="3353d9bca7"><path d="M 19 54 L 35 54 L 35 60.847656 L 19 60.847656 Z M 19 54 " clip-rule="nonzero"/></clipPath><clipPath id="f958d13468"><path d="M 0 0.15625 L 54.769531 0.15625 L 54.769531 53 L 0 53 Z M 0 0.15625 " clip-rule="nonzero"/></clipPath></defs><g clip-path="url(#3353d9bca7)"><path fill="#231f20" d="M 27.386719 58.105469 C 25.207031 58.105469 23.246094 56.808594 22.367188 54.800781 L 19.867188 55.902344 C 21.179688 58.902344 24.125 60.847656 27.386719 60.847656 C 30.691406 60.847656 33.652344 58.878906 34.9375 55.816406 L 32.425781 54.742188 C 31.558594 56.785156 29.585938 58.105469 27.386719 58.105469 Z M 27.386719 58.105469 " fill-opacity="1" fill-rule="nonzero"/></g><g clip-path="url(#f958d13468)"><path fill="#231f20" d="M 54.234375 48.804688 L 47.015625 42.757812 C 46.703125 42.492188 46.523438 42.117188 46.523438 41.707031 L 46.523438 25.117188 C 46.523438 19.808594 44.417969 14.863281 40.59375 11.199219 C 38.34375 9.046875 35.671875 7.523438 32.785156 6.675781 C 32.847656 6.253906 32.871094 5.828125 32.832031 5.382812 C 32.628906 3.035156 30.910156 1.039062 28.648438 0.53125 C 26.988281 0.15625 25.28125 0.542969 23.96875 1.597656 C 22.667969 2.648438 21.925781 4.207031 21.925781 5.890625 C 21.925781 6.167969 21.972656 6.421875 22.007812 6.6875 C 14.019531 9.082031 8.246094 16.652344 8.246094 25.625 L 8.246094 41.695312 C 8.246094 42.105469 8.066406 42.492188 7.753906 42.746094 L 0.535156 48.792969 C 0.222656 49.058594 0.0429688 49.445312 0.0429688 49.84375 L 0.0429688 51.222656 C 0.0429688 51.984375 0.65625 52.601562 1.414062 52.601562 L 53.355469 52.601562 C 54.113281 52.601562 54.726562 51.984375 54.726562 51.222656 L 54.726562 49.84375 C 54.714844 49.445312 54.535156 49.058594 54.234375 48.804688 Z M 24.640625 5.890625 C 24.640625 5.042969 25.015625 4.269531 25.664062 3.738281 C 26.328125 3.207031 27.15625 3.011719 28.035156 3.207031 C 29.128906 3.460938 29.996094 4.460938 30.101562 5.613281 C 30.117188 5.769531 30.089844 5.925781 30.078125 6.082031 C 28.886719 5.914062 27.6875 5.851562 26.445312 5.902344 C 25.84375 5.925781 25.242188 5.988281 24.65625 6.082031 C 24.667969 6.011719 24.640625 5.949219 24.640625 5.890625 Z M 3.542969 49.855469 L 9.5 44.863281 C 10.4375 44.078125 10.976562 42.929688 10.976562 41.695312 L 10.976562 25.625 C 10.976562 16.519531 17.835938 9.058594 26.589844 8.648438 C 31.136719 8.429688 35.433594 10.050781 38.703125 13.179688 C 41.976562 16.324219 43.78125 20.558594 43.78125 25.117188 L 43.78125 41.695312 C 43.78125 42.914062 44.320312 44.078125 45.257812 44.863281 L 51.214844 49.855469 Z M 3.542969 49.855469 " fill-opacity="1" fill-rule="nonzero"/></g></svg>