<svg xmlns="http://www.w3.org/2000/svg" xmlns:xlink="http://www.w3.org/1999/xlink" width="40" zoomAndPan="magnify" viewBox="0 0 30 30.000001" height="40" preserveAspectRatio="xMidYMid meet" version="1.0"><defs><clipPath id="4904ca2330"><path d="M 1.863281 1.160156 L 28.71875 1.160156 L 28.71875 28.015625 L 1.863281 28.015625 Z M 1.863281 1.160156 " clip-rule="nonzero"/></clipPath><clipPath id="c952b2144f"><path d="M 3.871094 4.519531 L 8 4.519531 L 8 8 L 3.871094 8 Z M 3.871094 4.519531 " clip-rule="nonzero"/></clipPath><clipPath id="bf7f4ef269"><path d="M 10 4.519531 L 14 4.519531 L 14 8 L 10 8 Z M 10 4.519531 " clip-rule="nonzero"/></clipPath><clipPath id="fed57873fa"><path d="M 16 4.519531 L 21 4.519531 L 21 8 L 16 8 Z M 16 4.519531 " clip-rule="nonzero"/></clipPath><clipPath id="63cb8fa93f"><path d="M 23 4.519531 L 26.320312 4.519531 L 26.320312 7.753906 L 23 7.753906 Z M 23 4.519531 " clip-rule="nonzero"/></clipPath><clipPath id="92ef34cb7a"><path d="M 3.871094 9 L 8 9 L 8 14 L 3.871094 14 Z M 3.871094 9 " clip-rule="nonzero"/></clipPath><clipPath id="c0457189d5"><path d="M 23 9.863281 L 26.320312 9.863281 L 26.320312 13.242188 L 23 13.242188 Z M 23 9.863281 " clip-rule="nonzero"/></clipPath><clipPath id="d50563d06e"><path d="M 3.871094 15 L 8 15 L 8 19 L 3.871094 19 Z M 3.871094 15 " clip-rule="nonzero"/></clipPath><clipPath id="a7ac070eb5"><path d="M 23 15.210938 L 26.320312 15.210938 L 26.320312 18.585938 L 23 18.585938 Z M 23 15.210938 " clip-rule="nonzero"/></clipPath><clipPath id="5cbb108c09"><path d="M 3.929688 20.839844 L 7.199219 20.839844 L 7.199219 24.109375 L 3.929688 24.109375 Z M 3.929688 20.839844 " clip-rule="nonzero"/></clipPath><clipPath id="0374bb3936"><path d="M 10.183594 20.839844 L 13.59375 20.839844 L 13.59375 24.109375 L 10.183594 24.109375 Z M 10.183594 20.839844 " clip-rule="nonzero"/></clipPath><clipPath id="188076e8a6"><path d="M 16.722656 20.839844 L 20.132812 20.839844 L 20.132812 24.109375 L 16.722656 24.109375 Z M 16.722656 20.839844 " clip-rule="nonzero"/></clipPath><clipPath id="0ef7f32bd0"><path d="M 23 20.839844 L 26.320312 20.839844 L 26.320312 24.109375 L 23 24.109375 Z M 23 20.839844 " clip-rule="nonzero"/></clipPath></defs><g clip-path="url(#4904ca2330)"><path fill="#63628f" d="M 25.085938 1.160156 L 5.496094 1.160156 C 3.503906 1.160156 1.863281 2.804688 1.863281 4.792969 L 1.863281 24.382812 C 1.863281 26.375 3.503906 28.015625 5.496094 28.015625 L 25.085938 28.015625 C 27.074219 28.015625 28.71875 26.375 28.71875 24.382812 L 28.71875 4.792969 C 28.71875 2.804688 27.074219 1.160156 25.085938 1.160156 Z M 27.914062 5.066406 L 27.914062 24.382812 C 27.914062 25.929688 26.632812 27.214844 25.085938 27.214844 L 5.496094 27.214844 C 3.949219 27.214844 2.664062 25.929688 2.664062 24.382812 L 2.664062 4.792969 C 2.664062 3.246094 3.949219 1.964844 5.496094 1.964844 L 25.085938 1.964844 C 26.632812 1.964844 27.914062 3.246094 27.914062 4.792969 Z M 27.914062 5.066406 " fill-opacity="1" fill-rule="nonzero"/></g><g clip-path="url(#c952b2144f)"><path fill="#63628f" d="M 7.1875 6.128906 C 7.1875 5.238281 6.457031 4.519531 5.558594 4.519531 C 4.660156 4.519531 3.929688 5.238281 3.929688 6.128906 C 3.929688 7.019531 4.660156 7.742188 5.558594 7.742188 C 6.457031 7.742188 7.1875 7.019531 7.1875 6.128906 " fill-opacity="1" fill-rule="nonzero"/></g><g clip-path="url(#bf7f4ef269)"><path fill="#63628f" d="M 13.496094 6.128906 C 13.496094 5.238281 12.769531 4.519531 11.871094 4.519531 C 10.96875 4.519531 10.242188 5.238281 10.242188 6.128906 C 10.242188 7.019531 10.96875 7.742188 11.871094 7.742188 C 12.769531 7.742188 13.496094 7.019531 13.496094 6.128906 " fill-opacity="1" fill-rule="nonzero"/></g><g clip-path="url(#fed57873fa)"><path fill="#63628f" d="M 20.007812 6.128906 C 20.007812 5.238281 19.277344 4.519531 18.378906 4.519531 C 17.480469 4.519531 16.753906 5.238281 16.753906 6.128906 C 16.753906 7.019531 17.480469 7.742188 18.378906 7.742188 C 19.277344 7.742188 20.007812 7.019531 20.007812 6.128906 " fill-opacity="1" fill-rule="nonzero"/></g><g clip-path="url(#63cb8fa93f)"><path fill="#63628f" d="M 26.320312 6.128906 C 26.320312 5.238281 25.589844 4.519531 24.691406 4.519531 C 23.792969 4.519531 23.0625 5.238281 23.0625 6.128906 C 23.0625 7.019531 23.792969 7.742188 24.691406 7.742188 C 25.589844 7.742188 26.320312 7.019531 26.320312 6.128906 " fill-opacity="1" fill-rule="nonzero"/></g><g clip-path="url(#92ef34cb7a)"><path fill="#63628f" d="M 7.1875 11.519531 C 7.1875 10.628906 6.457031 9.90625 5.558594 9.90625 C 4.660156 9.90625 3.929688 10.628906 3.929688 11.519531 C 3.929688 12.410156 4.660156 13.128906 5.558594 13.128906 C 6.457031 13.128906 7.1875 12.410156 7.1875 11.519531 " fill-opacity="1" fill-rule="nonzero"/></g><path fill="#63628f" d="M 13.496094 11.519531 C 13.496094 10.628906 12.769531 9.90625 11.871094 9.90625 C 10.96875 9.90625 10.242188 10.628906 10.242188 11.519531 C 10.242188 12.410156 10.96875 13.128906 11.871094 13.128906 C 12.769531 13.128906 13.496094 12.410156 13.496094 11.519531 " fill-opacity="1" fill-rule="nonzero"/><path fill="#63628f" d="M 20.007812 11.519531 C 20.007812 10.628906 19.277344 9.90625 18.378906 9.90625 C 17.480469 9.90625 16.753906 10.628906 16.753906 11.519531 C 16.753906 12.410156 17.480469 13.128906 18.378906 13.128906 C 19.277344 13.128906 20.007812 12.410156 20.007812 11.519531 " fill-opacity="1" fill-rule="nonzero"/><g clip-path="url(#c0457189d5)"><path fill="#63628f" d="M 26.320312 11.519531 C 26.320312 10.628906 25.589844 9.90625 24.691406 9.90625 C 23.792969 9.90625 23.0625 10.628906 23.0625 11.519531 C 23.0625 12.410156 23.792969 13.128906 24.691406 13.128906 C 25.589844 13.128906 26.320312 12.410156 26.320312 11.519531 " fill-opacity="1" fill-rule="nonzero"/></g><g clip-path="url(#d50563d06e)"><path fill="#63628f" d="M 7.1875 16.859375 C 7.1875 15.96875 6.457031 15.25 5.558594 15.25 C 4.660156 15.25 3.929688 15.96875 3.929688 16.859375 C 3.929688 17.75 4.660156 18.472656 5.558594 18.472656 C 6.457031 18.472656 7.1875 17.75 7.1875 16.859375 " fill-opacity="1" fill-rule="nonzero"/></g><path fill="#63628f" d="M 13.496094 16.859375 C 13.496094 15.96875 12.769531 15.25 11.871094 15.25 C 10.96875 15.25 10.242188 15.96875 10.242188 16.859375 C 10.242188 17.75 10.96875 18.472656 11.871094 18.472656 C 12.769531 18.472656 13.496094 17.75 13.496094 16.859375 " fill-opacity="1" fill-rule="nonzero"/><path fill="#63628f" d="M 20.007812 16.859375 C 20.007812 15.96875 19.277344 15.25 18.378906 15.25 C 17.480469 15.25 16.753906 15.96875 16.753906 16.859375 C 16.753906 17.75 17.480469 18.472656 18.378906 18.472656 C 19.277344 18.472656 20.007812 17.75 20.007812 16.859375 " fill-opacity="1" fill-rule="nonzero"/><g clip-path="url(#a7ac070eb5)"><path fill="#63628f" d="M 26.320312 16.859375 C 26.320312 15.96875 25.589844 15.25 24.691406 15.25 C 23.792969 15.25 23.0625 15.96875 23.0625 16.859375 C 23.0625 17.75 23.792969 18.472656 24.691406 18.472656 C 25.589844 18.472656 26.320312 17.75 26.320312 16.859375 " fill-opacity="1" fill-rule="nonzero"/></g><g clip-path="url(#5cbb108c09)"><path fill="#63628f" d="M 7.1875 22.496094 C 7.1875 21.609375 6.457031 20.886719 5.558594 20.886719 C 4.660156 20.886719 3.929688 21.609375 3.929688 22.496094 C 3.929688 23.386719 4.660156 24.109375 5.558594 24.109375 C 6.457031 24.109375 7.1875 23.386719 7.1875 22.496094 " fill-opacity="1" fill-rule="nonzero"/></g><g clip-path="url(#0374bb3936)"><path fill="#63628f" d="M 13.496094 22.496094 C 13.496094 21.609375 12.769531 20.886719 11.871094 20.886719 C 10.96875 20.886719 10.242188 21.609375 10.242188 22.496094 C 10.242188 23.386719 10.96875 24.109375 11.871094 24.109375 C 12.769531 24.109375 13.496094 23.386719 13.496094 22.496094 " fill-opacity="1" fill-rule="nonzero"/></g><g clip-path="url(#188076e8a6)"><path fill="#63628f" d="M 20.007812 22.496094 C 20.007812 21.609375 19.277344 20.886719 18.378906 20.886719 C 17.480469 20.886719 16.753906 21.609375 16.753906 22.496094 C 16.753906 23.386719 17.480469 24.109375 18.378906 24.109375 C 19.277344 24.109375 20.007812 23.386719 20.007812 22.496094 " fill-opacity="1" fill-rule="nonzero"/></g><g clip-path="url(#0ef7f32bd0)"><path fill="#63628f" d="M 26.320312 22.496094 C 26.320312 21.609375 25.589844 20.886719 24.691406 20.886719 C 23.792969 20.886719 23.0625 21.609375 23.0625 22.496094 C 23.0625 23.386719 23.792969 24.109375 24.691406 24.109375 C 25.589844 24.109375 26.320312 23.386719 26.320312 22.496094 " fill-opacity="1" fill-rule="nonzero"/></g></svg>