<svg xmlns="http://www.w3.org/2000/svg" xmlns:xlink="http://www.w3.org/1999/xlink" width="40" zoomAndPan="magnify" viewBox="0 0 30 30.000001" height="40" preserveAspectRatio="xMidYMid meet" version="1.0"><defs><clipPath id="4d797c971b"><path d="M 1.101562 0 L 23 0 L 23 22 L 1.101562 22 Z M 1.101562 0 " clip-rule="nonzero"/></clipPath><clipPath id="090d4c0849"><path d="M 7 7 L 28.683594 7 L 28.683594 29.03125 L 7 29.03125 Z M 7 7 " clip-rule="nonzero"/></clipPath><clipPath id="ea118ba5ff"><path d="M 13.402344 13.5 L 23.566406 13.5 L 23.566406 23.660156 L 13.402344 23.660156 Z M 13.402344 13.5 " clip-rule="nonzero"/></clipPath></defs><g clip-path="url(#4d797c971b)"><path fill="#656491" d="M 21.488281 6.054688 L 22.6875 6.054688 L 22.6875 0.0117188 L 1.101562 0.0117188 L 1.101562 21.765625 L 5.898438 21.765625 L 5.898438 20.558594 L 2.300781 20.558594 L 2.300781 1.222656 L 21.488281 1.222656 Z M 21.488281 6.054688 " fill-opacity="1" fill-rule="nonzero"/></g><g clip-path="url(#090d4c0849)"><path fill="#656491" d="M 28.683594 29.015625 L 28.683594 7.265625 L 7.097656 7.265625 L 7.097656 29.015625 Z M 8.296875 27.808594 L 8.296875 8.472656 L 27.484375 8.472656 L 27.484375 27.808594 Z M 8.296875 27.808594 " fill-opacity="1" fill-rule="nonzero"/></g><g clip-path="url(#ea118ba5ff)"><path fill="#656491" d="M 18.484375 13.5 C 15.675781 13.5 13.402344 15.773438 13.402344 18.582031 C 13.402344 21.386719 15.675781 23.660156 18.484375 23.660156 C 21.289062 23.660156 23.566406 21.386719 23.566406 18.582031 C 23.566406 15.773438 21.289062 13.5 18.484375 13.5 Z M 18.484375 22.644531 C 16.238281 22.644531 14.417969 20.828125 14.417969 18.582031 C 14.417969 16.335938 16.238281 14.515625 18.484375 14.515625 C 20.730469 14.515625 22.546875 16.335938 22.546875 18.582031 C 22.546875 20.828125 20.730469 22.644531 18.484375 22.644531 Z M 18.484375 22.644531 " fill-opacity="1" fill-rule="nonzero"/></g></svg>