<svg xmlns="http://www.w3.org/2000/svg" xmlns:xlink="http://www.w3.org/1999/xlink" width="40" zoomAndPan="magnify" viewBox="0 0 30 30.000001" height="40" preserveAspectRatio="xMidYMid meet" version="1.0"><defs><clipPath id="c181929fb1"><path d="M 0.484375 0 L 29.515625 0 L 29.515625 29.03125 L 0.484375 29.03125 Z M 0.484375 0 " clip-rule="nonzero"/></clipPath><clipPath id="8cd553984d"><path d="M 6.925781 6.441406 L 23.257812 6.441406 L 23.257812 22.773438 L 6.925781 22.773438 Z M 6.925781 6.441406 " clip-rule="nonzero"/></clipPath></defs><g clip-path="url(#c181929fb1)"><path fill="#72719b" d="M 25.589844 0 L 4.410156 0 C 2.257812 0 0.484375 1.777344 0.484375 3.925781 L 0.484375 25.105469 C 0.484375 27.257812 2.257812 29.03125 4.410156 29.03125 L 25.589844 29.03125 C 27.742188 29.03125 29.515625 27.257812 29.515625 25.105469 L 29.515625 3.925781 C 29.515625 1.777344 27.742188 0 25.589844 0 Z M 28.648438 4.222656 L 28.648438 25.105469 C 28.648438 26.777344 27.261719 28.164062 25.589844 28.164062 L 4.410156 28.164062 C 2.738281 28.164062 1.351562 26.777344 1.351562 25.105469 L 1.351562 3.925781 C 1.351562 2.253906 2.738281 0.867188 4.410156 0.867188 L 25.589844 0.867188 C 27.261719 0.867188 28.648438 2.253906 28.648438 3.925781 Z M 28.648438 4.222656 " fill-opacity="1" fill-rule="nonzero"/></g><g clip-path="url(#8cd553984d)"><path fill="#72719b" d="M 21.046875 6.441406 L 9.132812 6.441406 C 7.925781 6.441406 6.925781 7.441406 6.925781 8.652344 L 6.925781 20.5625 C 6.925781 21.773438 7.925781 22.773438 9.132812 22.773438 L 21.046875 22.773438 C 22.257812 22.773438 23.257812 21.773438 23.257812 20.5625 L 23.257812 8.652344 C 23.257812 7.441406 22.257812 6.441406 21.046875 6.441406 Z M 22.769531 8.816406 L 22.769531 20.5625 C 22.769531 21.503906 21.988281 22.285156 21.046875 22.285156 L 9.132812 22.285156 C 8.195312 22.285156 7.414062 21.503906 7.414062 20.5625 L 7.414062 8.652344 C 7.414062 7.710938 8.195312 6.929688 9.132812 6.929688 L 21.046875 6.929688 C 21.988281 6.929688 22.769531 7.710938 22.769531 8.652344 Z M 22.769531 8.816406 " fill-opacity="1" fill-rule="nonzero"/></g></svg>