<svg xmlns="http://www.w3.org/2000/svg" xmlns:xlink="http://www.w3.org/1999/xlink" width="40" zoomAndPan="magnify" viewBox="0 0 30 30.000001" height="40" preserveAspectRatio="xMidYMid meet" version="1.0"><defs><clipPath id="2d16b3ecad"><path d="M 0.484375 0 L 21 0 L 21 29.03125 L 0.484375 29.03125 Z M 0.484375 0 " clip-rule="nonzero"/></clipPath><clipPath id="3bf0d413d8"><path d="M 22 9 L 29.515625 9 L 29.515625 20 L 22 20 Z M 22 9 " clip-rule="nonzero"/></clipPath></defs><g clip-path="url(#2d16b3ecad)"><path fill="#6f6e91" d="M 16.320312 29.03125 L 4.441406 29.03125 C 4.183594 29.03125 3.925781 29.007812 3.671875 28.957031 C 3.414062 28.90625 3.167969 28.832031 2.929688 28.730469 C 2.6875 28.632812 2.460938 28.507812 2.242188 28.363281 C 2.027344 28.21875 1.828125 28.054688 1.644531 27.871094 C 1.460938 27.6875 1.296875 27.488281 1.152344 27.273438 C 1.007812 27.054688 0.882812 26.828125 0.785156 26.589844 C 0.6875 26.347656 0.609375 26.101562 0.558594 25.84375 C 0.507812 25.589844 0.484375 25.332031 0.484375 25.074219 L 0.484375 3.957031 C 0.484375 3.699219 0.507812 3.441406 0.558594 3.1875 C 0.609375 2.933594 0.6875 2.683594 0.785156 2.445312 C 0.882812 2.203125 1.007812 1.976562 1.152344 1.757812 C 1.296875 1.542969 1.460938 1.34375 1.644531 1.160156 C 1.828125 0.976562 2.027344 0.8125 2.242188 0.667969 C 2.460938 0.523438 2.6875 0.402344 2.929688 0.300781 C 3.167969 0.203125 3.414062 0.125 3.671875 0.0742188 C 3.925781 0.0234375 4.183594 0 4.441406 0 L 16.320312 0 C 16.578125 0 16.835938 0.0234375 17.09375 0.0742188 C 17.347656 0.125 17.59375 0.203125 17.835938 0.300781 C 18.074219 0.402344 18.304688 0.523438 18.519531 0.667969 C 18.734375 0.8125 18.933594 0.976562 19.117188 1.160156 C 19.304688 1.34375 19.46875 1.542969 19.613281 1.757812 C 19.753906 1.976562 19.878906 2.203125 19.976562 2.445312 C 20.078125 2.683594 20.152344 2.929688 20.203125 3.1875 C 20.253906 3.441406 20.277344 3.699219 20.277344 3.957031 L 20.277344 8.578125 C 20.277344 8.753906 20.246094 8.921875 20.179688 9.082031 C 20.109375 9.246094 20.015625 9.386719 19.890625 9.511719 C 19.769531 9.632812 19.625 9.730469 19.464844 9.796875 C 19.300781 9.863281 19.132812 9.898438 18.957031 9.898438 C 18.785156 9.898438 18.617188 9.863281 18.453125 9.796875 C 18.292969 9.730469 18.148438 9.632812 18.027344 9.511719 C 17.902344 9.386719 17.808594 9.246094 17.738281 9.082031 C 17.671875 8.921875 17.640625 8.753906 17.640625 8.578125 L 17.640625 3.957031 C 17.640625 3.785156 17.605469 3.617188 17.539062 3.453125 C 17.472656 3.292969 17.375 3.148438 17.253906 3.027344 C 17.128906 2.902344 16.984375 2.808594 16.824219 2.738281 C 16.664062 2.671875 16.496094 2.640625 16.320312 2.640625 L 4.441406 2.640625 C 4.269531 2.640625 4.097656 2.671875 3.9375 2.738281 C 3.777344 2.808594 3.632812 2.902344 3.507812 3.027344 C 3.386719 3.148438 3.289062 3.292969 3.222656 3.453125 C 3.15625 3.617188 3.125 3.785156 3.125 3.957031 L 3.125 25.074219 C 3.125 25.25 3.15625 25.417969 3.222656 25.578125 C 3.289062 25.738281 3.386719 25.882812 3.507812 26.007812 C 3.632812 26.128906 3.777344 26.226562 3.9375 26.292969 C 4.097656 26.359375 4.269531 26.394531 4.441406 26.394531 L 16.320312 26.394531 C 16.496094 26.394531 16.664062 26.359375 16.824219 26.292969 C 16.984375 26.226562 17.128906 26.128906 17.253906 26.007812 C 17.375 25.882812 17.472656 25.738281 17.539062 25.578125 C 17.605469 25.417969 17.640625 25.25 17.640625 25.074219 L 17.640625 20.453125 C 17.640625 20.28125 17.671875 20.109375 17.738281 19.949219 C 17.808594 19.789062 17.902344 19.644531 18.027344 19.519531 C 18.148438 19.398438 18.292969 19.300781 18.453125 19.234375 C 18.617188 19.167969 18.785156 19.136719 18.957031 19.136719 C 19.132812 19.136719 19.300781 19.167969 19.464844 19.234375 C 19.625 19.300781 19.769531 19.398438 19.890625 19.519531 C 20.015625 19.644531 20.109375 19.789062 20.179688 19.949219 C 20.246094 20.109375 20.277344 20.28125 20.277344 20.453125 L 20.277344 25.074219 C 20.277344 25.332031 20.253906 25.589844 20.203125 25.84375 C 20.152344 26.101562 20.078125 26.347656 19.976562 26.589844 C 19.878906 26.828125 19.753906 27.054688 19.613281 27.273438 C 19.46875 27.488281 19.304688 27.6875 19.117188 27.871094 C 18.933594 28.054688 18.734375 28.21875 18.519531 28.363281 C 18.304688 28.507812 18.074219 28.632812 17.835938 28.730469 C 17.59375 28.832031 17.347656 28.90625 17.09375 28.957031 C 16.835938 29.007812 16.578125 29.03125 16.320312 29.03125 Z M 16.320312 29.03125 " fill-opacity="1" fill-rule="nonzero"/></g><path fill="#6f6e91" d="M 27.535156 15.835938 L 10.261719 15.835938 C 10.085938 15.835938 9.917969 15.800781 9.757812 15.734375 C 9.597656 15.667969 9.453125 15.574219 9.328125 15.449219 C 9.207031 15.324219 9.109375 15.183594 9.042969 15.019531 C 8.976562 14.859375 8.941406 14.691406 8.941406 14.515625 C 8.941406 14.339844 8.976562 14.171875 9.042969 14.011719 C 9.109375 13.847656 9.207031 13.707031 9.328125 13.582031 C 9.453125 13.460938 9.597656 13.363281 9.757812 13.296875 C 9.917969 13.230469 10.085938 13.195312 10.261719 13.195312 L 27.535156 13.195312 C 27.710938 13.195312 27.878906 13.230469 28.042969 13.296875 C 28.203125 13.363281 28.347656 13.460938 28.46875 13.582031 C 28.59375 13.707031 28.6875 13.847656 28.753906 14.011719 C 28.824219 14.171875 28.855469 14.339844 28.855469 14.515625 C 28.855469 14.691406 28.824219 14.859375 28.753906 15.019531 C 28.6875 15.183594 28.59375 15.324219 28.46875 15.449219 C 28.347656 15.574219 28.203125 15.667969 28.042969 15.734375 C 27.878906 15.800781 27.710938 15.835938 27.535156 15.835938 Z M 27.535156 15.835938 " fill-opacity="1" fill-rule="nonzero"/><g clip-path="url(#3bf0d413d8)"><path fill="#6f6e91" d="M 24.238281 19.792969 C 23.972656 19.792969 23.726562 19.71875 23.507812 19.570312 C 23.285156 19.421875 23.125 19.226562 23.023438 18.980469 C 22.921875 18.734375 22.898438 18.480469 22.949219 18.21875 C 23 17.957031 23.121094 17.734375 23.308594 17.542969 L 26.328125 14.515625 L 23.300781 11.488281 C 23.175781 11.363281 23.082031 11.222656 23.015625 11.058594 C 22.949219 10.898438 22.914062 10.730469 22.914062 10.554688 C 22.914062 10.378906 22.949219 10.210938 23.015625 10.046875 C 23.082031 9.886719 23.175781 9.742188 23.300781 9.621094 C 23.425781 9.496094 23.566406 9.402344 23.730469 9.335938 C 23.890625 9.265625 24.058594 9.234375 24.234375 9.234375 C 24.410156 9.234375 24.578125 9.265625 24.738281 9.335938 C 24.902344 9.402344 25.042969 9.496094 25.167969 9.621094 L 29.125 13.578125 C 29.25 13.703125 29.347656 13.847656 29.414062 14.007812 C 29.480469 14.167969 29.515625 14.335938 29.515625 14.511719 C 29.515625 14.6875 29.480469 14.855469 29.414062 15.019531 C 29.347656 15.179688 29.25 15.324219 29.125 15.445312 L 25.167969 19.40625 C 24.910156 19.664062 24.601562 19.792969 24.238281 19.792969 Z M 24.238281 19.792969 " fill-opacity="1" fill-rule="nonzero"/></g></svg>