<svg xmlns="http://www.w3.org/2000/svg" xmlns:xlink="http://www.w3.org/1999/xlink" width="40" zoomAndPan="magnify" viewBox="0 0 30 30.000001" height="40" preserveAspectRatio="xMidYMid meet" version="1.0"><defs><clipPath id="b36cae46f4"><path d="M 4.363281 0 L 25.410156 0 L 25.410156 29.03125 L 4.363281 29.03125 Z M 4.363281 0 " clip-rule="nonzero"/></clipPath></defs><g clip-path="url(#b36cae46f4)"><path fill="#63628f" d="M 6.277344 13.550781 L 5.320312 13.550781 C 4.792969 13.550781 4.363281 13.984375 4.363281 14.515625 L 4.363281 28.046875 C 4.363281 28.582031 4.792969 29.015625 5.320312 29.015625 L 24.457031 29.015625 C 24.984375 29.015625 25.410156 28.582031 25.410156 28.046875 L 25.410156 14.515625 C 25.410156 13.984375 24.984375 13.550781 24.457031 13.550781 L 23.5 13.550781 L 23.5 8.152344 C 23.5 5.996094 22.648438 3.925781 21.140625 2.402344 C 19.628906 0.875 17.582031 0.0195312 15.449219 0.0195312 C 15.074219 0.0195312 14.699219 0.0195312 14.328125 0.0195312 C 12.191406 0.0195312 10.144531 0.875 8.636719 2.402344 C 7.125 3.925781 6.277344 5.996094 6.277344 8.152344 Z M 22.546875 15.484375 L 6.277344 15.484375 C 6.277344 15.484375 6.277344 27.082031 6.277344 27.082031 C 6.277344 27.082031 23.5 27.082031 23.5 27.082031 L 23.5 15.484375 Z M 13.929688 22.082031 L 13.929688 24.179688 C 13.929688 24.714844 14.359375 25.148438 14.886719 25.148438 C 15.414062 25.148438 15.84375 24.714844 15.84375 24.179688 L 15.84375 22.082031 C 16.960938 21.683594 17.757812 20.609375 17.757812 19.347656 C 17.757812 17.75 16.472656 16.449219 14.886719 16.449219 C 13.304688 16.449219 12.019531 17.75 12.019531 19.347656 C 12.019531 20.609375 12.816406 21.683594 13.929688 22.082031 Z M 14.886719 18.382812 C 15.414062 18.382812 15.84375 18.816406 15.84375 19.347656 C 15.84375 19.882812 15.414062 20.316406 14.886719 20.316406 C 14.359375 20.316406 13.929688 19.882812 13.929688 19.347656 C 13.929688 18.816406 14.359375 18.382812 14.886719 18.382812 Z M 8.191406 13.550781 C 8.191406 13.550781 8.191406 8.152344 8.191406 8.152344 C 8.191406 6.507812 8.835938 4.929688 9.988281 3.765625 C 11.140625 2.605469 12.699219 1.949219 14.328125 1.949219 C 14.699219 1.949219 15.074219 1.949219 15.449219 1.949219 C 17.074219 1.949219 18.636719 2.605469 19.789062 3.765625 C 20.9375 4.929688 21.585938 6.507812 21.585938 8.152344 L 21.585938 13.550781 Z M 8.191406 13.550781 " fill-opacity="1" fill-rule="evenodd"/></g></svg>