<svg xmlns="http://www.w3.org/2000/svg" xmlns:xlink="http://www.w3.org/1999/xlink" width="40" zoomAndPan="magnify" viewBox="0 0 30 30.000001" height="40" preserveAspectRatio="xMidYMid meet" version="1.0"><defs><clipPath id="e1f0026102"><path d="M 0.484375 1.597656 L 29.515625 1.597656 L 29.515625 23 L 0.484375 23 Z M 0.484375 1.597656 " clip-rule="nonzero"/></clipPath><clipPath id="a8eab6cef5"><path d="M 9 22 L 21 22 L 21 27.726562 L 9 27.726562 Z M 9 22 " clip-rule="nonzero"/></clipPath></defs><g clip-path="url(#e1f0026102)"><path fill="#ea9c53" d="M 28.3125 1.78125 L 1.6875 1.78125 C 1.007812 1.78125 0.484375 2.3125 0.484375 3 L 0.484375 21.179688 C 0.484375 21.871094 1.007812 22.398438 1.6875 22.398438 L 28.3125 22.398438 C 28.992188 22.398438 29.515625 21.871094 29.515625 21.179688 L 29.515625 3 C 29.515625 2.363281 28.992188 1.78125 28.3125 1.78125 Z M 28.3125 19.484375 L 1.6875 19.484375 L 1.6875 3.371094 L 28.3125 3.371094 Z M 28.3125 19.484375 " fill-opacity="1" fill-rule="nonzero"/></g><g clip-path="url(#a8eab6cef5)"><path fill="#ea9c53" d="M 19.347656 22.824219 L 10.652344 22.824219 L 10.652344 25.578125 L 9.027344 25.578125 L 9.027344 27.539062 L 20.972656 27.539062 L 20.972656 25.578125 L 19.347656 25.578125 Z M 19.347656 22.824219 " fill-opacity="1" fill-rule="nonzero"/></g></svg>