<svg xmlns="http://www.w3.org/2000/svg" xmlns:xlink="http://www.w3.org/1999/xlink" width="40" zoomAndPan="magnify" viewBox="0 0 30 30.000001" height="40" preserveAspectRatio="xMidYMid meet" version="1.0"><defs><clipPath id="7c1be14b8f"><path d="M 3.386719 0 L 28.789062 0 L 28.789062 29 L 3.386719 29 Z M 3.386719 0 " clip-rule="nonzero"/></clipPath></defs><g clip-path="url(#7c1be14b8f)"><path fill="#1b1931" d="M 28.527344 15.15625 L 14.964844 28.714844 C 14.789062 28.890625 14.574219 28.980469 14.324219 28.980469 L 4.382812 28.980469 C 4.199219 28.980469 4.03125 28.929688 3.878906 28.828125 C 3.726562 28.726562 3.617188 28.589844 3.546875 28.421875 C 3.476562 28.253906 3.460938 28.078125 3.496094 27.898438 C 3.53125 27.722656 3.613281 27.566406 3.742188 27.4375 L 16.664062 14.515625 L 3.742188 1.59375 C 3.613281 1.464844 3.53125 1.3125 3.496094 1.132812 C 3.460938 0.953125 3.476562 0.777344 3.546875 0.609375 C 3.617188 0.441406 3.726562 0.304688 3.878906 0.203125 C 4.03125 0.101562 4.199219 0.0507812 4.382812 0.0507812 L 14.324219 0.0507812 C 14.574219 0.0507812 14.789062 0.140625 14.964844 0.316406 L 28.527344 13.878906 C 28.703125 14.054688 28.789062 14.265625 28.789062 14.515625 C 28.789062 14.765625 28.703125 14.980469 28.527344 15.15625 Z M 28.527344 15.15625 " fill-opacity="1" fill-rule="nonzero"/></g></svg>