<svg xmlns="http://www.w3.org/2000/svg" xmlns:xlink="http://www.w3.org/1999/xlink" width="40" zoomAndPan="magnify" viewBox="0 0 30 30.000001" height="40" preserveAspectRatio="xMidYMid meet" version="1.0"><defs><clipPath id="13be8ffce9"><path d="M 3.640625 0.101562 L 26 0.101562 L 26 28 L 3.640625 28 Z M 3.640625 0.101562 " clip-rule="nonzero"/></clipPath></defs><g clip-path="url(#13be8ffce9)"><path fill="#1b1b1b" d="M 16.199219 27.429688 L 25.421875 18.355469 C 25.59375 18.183594 25.726562 17.988281 25.820312 17.765625 C 25.914062 17.542969 25.960938 17.308594 25.960938 17.066406 C 25.960938 16.828125 25.914062 16.59375 25.820312 16.371094 C 25.726562 16.148438 25.59375 15.949219 25.421875 15.78125 C 25.246094 15.609375 25.046875 15.476562 24.820312 15.382812 C 24.59375 15.292969 24.355469 15.246094 24.109375 15.246094 C 23.863281 15.246094 23.628906 15.292969 23.402344 15.382812 C 23.175781 15.476562 22.976562 15.609375 22.800781 15.78125 L 16.734375 21.75 L 16.734375 -13.777344 C 16.734375 -14.019531 16.6875 -14.25 16.59375 -14.472656 C 16.5 -14.695312 16.367188 -14.890625 16.195312 -15.0625 C 16.023438 -15.230469 15.824219 -15.363281 15.597656 -15.457031 C 15.371094 -15.546875 15.136719 -15.59375 14.890625 -15.59375 C 14.648438 -15.59375 14.410156 -15.546875 14.183594 -15.457031 C 13.960938 -15.363281 13.761719 -15.230469 13.585938 -15.0625 C 13.414062 -14.890625 13.28125 -14.695312 13.1875 -14.472656 C 13.09375 -14.25 13.046875 -14.019531 13.046875 -13.777344 L 13.046875 21.75 L 6.980469 15.78125 C 6.804688 15.609375 6.605469 15.480469 6.378906 15.386719 C 6.152344 15.292969 5.914062 15.25 5.671875 15.25 C 5.425781 15.25 5.1875 15.292969 4.960938 15.386719 C 4.734375 15.480469 4.535156 15.609375 4.359375 15.78125 C 4.1875 15.953125 4.058594 16.148438 3.964844 16.371094 C 3.871094 16.59375 3.824219 16.828125 3.824219 17.066406 C 3.824219 17.308594 3.871094 17.539062 3.964844 17.761719 C 4.058594 17.988281 4.1875 18.183594 4.359375 18.355469 L 13.582031 27.429688 C 13.757812 27.597656 13.957031 27.726562 14.183594 27.816406 C 14.410156 27.910156 14.644531 27.953125 14.890625 27.953125 C 15.136719 27.953125 15.371094 27.910156 15.597656 27.816406 C 15.824219 27.726562 16.027344 27.597656 16.199219 27.429688 Z M 16.199219 27.429688 " fill-opacity="1" fill-rule="nonzero"/></g></svg>