<svg xmlns="http://www.w3.org/2000/svg" xmlns:xlink="http://www.w3.org/1999/xlink" width="40" zoomAndPan="magnify" viewBox="0 0 30 30.000001" height="40" preserveAspectRatio="xMidYMid meet" version="1.0"><defs><clipPath id="44e64569d8"><path d="M 0.484375 0 L 29.515625 0 L 29.515625 29.03125 L 0.484375 29.03125 Z M 0.484375 0 " clip-rule="nonzero"/></clipPath></defs><g clip-path="url(#44e64569d8)"><path fill="#ee6b6b" d="M 28.648438 10.429688 L 25.738281 10.121094 C 25.726562 10.089844 25.714844 10.058594 25.699219 10.027344 L 27.542969 7.753906 C 27.851562 7.367188 27.824219 6.808594 27.472656 6.460938 L 23.054688 2.042969 C 22.703125 1.691406 22.148438 1.664062 21.761719 1.976562 L 19.488281 3.816406 C 19.457031 3.800781 19.425781 3.789062 19.394531 3.777344 L 19.085938 0.867188 C 19.035156 0.375 18.617188 0 18.125 0 L 11.875 0 C 11.382812 0 10.964844 0.375 10.914062 0.867188 L 10.605469 3.777344 C 10.574219 3.789062 10.542969 3.800781 10.511719 3.816406 L 8.238281 1.976562 C 7.851562 1.664062 7.296875 1.691406 6.945312 2.042969 L 2.527344 6.460938 C 2.175781 6.808594 2.148438 7.367188 2.457031 7.753906 L 4.300781 10.027344 C 4.285156 10.058594 4.273438 10.089844 4.261719 10.121094 L 1.351562 10.429688 C 0.859375 10.484375 0.484375 10.898438 0.484375 11.394531 L 0.484375 17.640625 C 0.484375 18.136719 0.859375 18.550781 1.351562 18.601562 L 4.261719 18.910156 C 4.273438 18.941406 4.285156 18.972656 4.300781 19.003906 L 2.457031 21.277344 C 2.148438 21.664062 2.175781 22.222656 2.527344 22.570312 L 6.945312 26.988281 C 7.292969 27.339844 7.851562 27.367188 8.238281 27.058594 L 10.511719 25.21875 C 10.542969 25.230469 10.574219 25.242188 10.605469 25.253906 L 10.914062 28.167969 C 10.964844 28.660156 11.382812 29.03125 11.875 29.03125 L 18.125 29.03125 C 18.617188 29.03125 19.035156 28.660156 19.085938 28.167969 L 19.394531 25.253906 C 19.425781 25.242188 19.457031 25.230469 19.488281 25.21875 L 21.761719 27.058594 C 22.148438 27.367188 22.703125 27.339844 23.054688 26.988281 L 27.472656 22.570312 C 27.824219 22.222656 27.851562 21.664062 27.542969 21.277344 L 25.699219 19.003906 C 25.714844 18.972656 25.726562 18.941406 25.738281 18.910156 L 28.648438 18.601562 C 29.140625 18.550781 29.515625 18.136719 29.515625 17.640625 L 29.515625 11.394531 C 29.515625 10.898438 29.140625 10.484375 28.648438 10.429688 Z M 27.582031 16.769531 L 24.945312 17.046875 C 24.570312 17.085938 24.257812 17.339844 24.132812 17.691406 C 24.011719 18.039062 23.867188 18.386719 23.703125 18.726562 C 23.539062 19.0625 23.585938 19.464844 23.820312 19.757812 L 25.488281 21.820312 L 22.304688 25.003906 L 20.242188 23.335938 C 19.949219 23.101562 19.546875 23.054688 19.210938 23.21875 C 18.867188 23.386719 18.519531 23.527344 18.179688 23.648438 C 17.824219 23.769531 17.570312 24.085938 17.53125 24.460938 L 17.253906 27.097656 L 12.746094 27.097656 L 12.46875 24.460938 C 12.429688 24.085938 12.175781 23.769531 11.820312 23.648438 C 11.480469 23.527344 11.132812 23.382812 10.789062 23.21875 C 10.453125 23.054688 10.050781 23.101562 9.757812 23.335938 L 7.695312 25.003906 L 4.511719 21.820312 L 6.179688 19.757812 C 6.414062 19.464844 6.460938 19.0625 6.296875 18.726562 C 6.132812 18.386719 5.988281 18.039062 5.867188 17.691406 C 5.742188 17.339844 5.429688 17.085938 5.054688 17.046875 L 2.417969 16.769531 L 2.417969 12.261719 L 5.054688 11.984375 C 5.429688 11.945312 5.742188 11.695312 5.867188 11.339844 C 5.988281 10.992188 6.132812 10.644531 6.296875 10.308594 C 6.460938 9.96875 6.414062 9.566406 6.179688 9.277344 L 4.511719 7.214844 L 7.695312 4.027344 L 9.757812 5.695312 C 10.050781 5.933594 10.453125 5.976562 10.789062 5.8125 C 11.132812 5.648438 11.480469 5.503906 11.820312 5.386719 C 12.175781 5.261719 12.429688 4.945312 12.46875 4.570312 L 12.746094 1.933594 L 17.253906 1.933594 L 17.53125 4.570312 C 17.570312 4.945312 17.824219 5.261719 18.179688 5.386719 C 18.519531 5.503906 18.867188 5.648438 19.210938 5.8125 C 19.546875 5.976562 19.949219 5.933594 20.242188 5.695312 L 22.304688 4.027344 L 25.488281 7.214844 L 23.820312 9.277344 C 23.585938 9.566406 23.539062 9.96875 23.703125 10.308594 C 23.867188 10.644531 24.011719 10.992188 24.132812 11.339844 C 24.257812 11.695312 24.570312 11.945312 24.945312 11.984375 L 27.582031 12.261719 Z M 27.582031 16.769531 " fill-opacity="1" fill-rule="nonzero"/></g><path fill="#ee6b6b" d="M 15 6.609375 C 10.640625 6.609375 7.09375 10.15625 7.09375 14.515625 C 7.09375 18.875 10.640625 22.421875 15 22.421875 C 19.359375 22.421875 22.90625 18.875 22.90625 14.515625 C 22.90625 10.15625 19.359375 6.609375 15 6.609375 Z M 15 20.488281 C 11.707031 20.488281 9.03125 17.808594 9.03125 14.515625 C 9.03125 11.222656 11.707031 8.546875 15 8.546875 C 18.292969 8.546875 20.96875 11.222656 20.96875 14.515625 C 20.96875 17.808594 18.292969 20.488281 15 20.488281 Z M 15 20.488281 " fill-opacity="1" fill-rule="nonzero"/></svg>